<svg xmlns="http://www.w3.org/2000/svg" viewBox="0 0 1001.77 953.03"><defs><style>.cls-1{fill:#0a0906;}.cls-2{fill:#f0ecdf;}.cls-3{fill:#343434;}.cls-4{fill:#fbd129;}.cls-5{fill:#afafaf;}.cls-6{fill:#333;}.cls-7{fill:#fbda54;}.cls-8{fill:#fcdb54;}.cls-9{fill:#d2a800;}.cls-10{fill:#b3b3c4;}.cls-11{fill:#5dcf5d;}.cls-12{fill:#cfa600;}.cls-13{fill:#f8d752;}.cls-14{fill:#5ed25e;}.cls-15{fill:#efebde;}.cls-16{fill:#f8cf29;}.cls-17{fill:#217421;}.cls-18{fill:#cba300;}.cls-19{fill:#8a8aa2;}.cls-20{fill:#800202;}.cls-21{fill:#9090a9;}.cls-22{fill:#f95656;}.cls-23{fill:#d9b31c;}.cls-24{fill:#fafafa;}.cls-25{fill:#4c4c5e;}.cls-26{fill:#cb0000;}.cls-27{fill:#f0f0f0;}.cls-28{fill:#318431;}.cls-29{fill:#171716;}</style></defs><g id="Layer_2" data-name="Layer 2"><g id="Layer_1-2" data-name="Layer 1"><path class="cls-1" d="M35,953c6.52-14.14,12.65-28.48,19.63-42.39a674.39,674.39,0,0,1,58.25-96.21,25.37,25.37,0,0,0,1.75-3.14c-6-3.5-12.22-6.18-17.27-10.28-5.72-4.66-10.35-10.64-15.55-16-7.43-7.57-14.66-15.35-22.5-22.47-8.4-7.62-17.21-14.81-22.58-25-1.81-3.44-2.53-7.45-3.92-11.13a39.49,39.49,0,0,0-2.78-5.7c-6.46-11.18-13.85-21.93-19.24-33.6-6.51-14.09-7-29.74-7.74-45-.92-18.63-1.29-37.29-1.73-55.94-.08-3.62.65-7.26.93-10.89a11.82,11.82,0,0,0,0-3.94C-2.27,554.47.33,538.69,7.5,522.87c3.27-7.21,3.33-15.86,5-23.83,3.46-16.57,9.23-32.21,19-46.21a13.22,13.22,0,0,1,2.18-2.72C50,436.46,57.1,417,65.83,398.62c5.46-11.53,11-23,16.91-34.33,1.38-2.67,1.58-3.72-1.24-5.38a71.47,71.47,0,0,1-10.75-8c-4.58-4-5-9.81-1.37-14.78,2.26-3.09,5.08-5.83,6.93-9.13s3-7.24,4.28-10.93c.72-2,.6-4.73,1.93-6.07,3.89-4,2.79-8.12,2.08-12.79-3.44-22.77-5.27-45.63-3.57-68.73.32-4.37-2.4-8.89-3.12-13.44s-2-9.72-.83-14c5.14-18.54,11.07-36.86,16.79-55.23,1.09-3.48,2.5-6.87,3.83-10.27,1.76-4.53,5.08-7,9.81-8.3a12.87,12.87,0,0,0,7-4.79,232.46,232.46,0,0,1,31.12-38.87C151.07,78,155.35,71.35,160.93,66c17.8-17.11,39.53-27.86,62.32-36.45,13.9-5.24,28.09-9.79,42.34-14C305.79,3.64,346.76-2.51,388.77,1,430.51,4.41,469.15,16.89,503,42.13c27.19,20.26,47.42,46.39,62.54,76.57A326.31,326.31,0,0,1,586.45,173c.68,2.31,3.68,4.66,6.13,5.61,19.57,7.51,39.24,14.73,58.92,21.94,5,1.83,10.14,3.18,15.15,4.95,10.39,3.66,15,14.62,10.66,24.77-3.65,8.54-10,14.78-17,20.56-1.38,1.14-2.75,2.31-5.26,4.41,4.95,4.22,9.12,8.75,14.16,11.87,13.28,8.24,22.15,19.56,27.57,34.18,2,5.27,6.29,9.62,9.16,14.6,10.43,18.12,20.91,36.22,31,54.54a109.2,109.2,0,0,1,13.44,60c-.46,7.84-.94,15.59,1.45,23.58,3.54,11.84.54,23.85-2.82,35.37a287.26,287.26,0,0,0-9.67,48.26c-2.26,19.7-10.85,37.35-28.07,49.1-9.72,6.63-19.87,12.64-29.83,18.91a6.75,6.75,0,0,1-2.18,1.18c-6.47,1.08-9.54,5.25-10.57,12.09a37.54,37.54,0,0,0,4.93.8c21.66.79,42.8-2.56,63.67-8,8-2.11,16-4.32,23.94-6.8,1.48-.46,3.43-2.36,3.55-3.74,1.83-21.55,16.24-32,34.31-39.14,4.76-1.88,9.92-2.73,14.84-4.21a10.51,10.51,0,0,0,3.82-2.16c10-8.76,21.38-15.09,33.56-20.22,1.46-.62,3.18-3,3.14-4.45-.73-25.62-.66-51.35-6.43-76.54-3.15-13.76-5.88-27.74-10.55-41-3.44-9.73-9.85-18.38-14.72-27.63q-8.24-15.64-16.06-31.49c-7.86-15.84-6-31.09,4.08-45.16,12.67-17.72,25.87-35.06,38.85-52.56,4.76-6.41,9.63-12.74,14.29-19.22,3-4.15,6.8-4.78,11-2.62q13,6.72,25.65,14c3.91,2.25,5,5.83,3.84,10.32q-8,31.68-15.7,63.44c-.29,1.21-.76,2.88-.21,3.72,4.61,7,8,15.12,16.69,18.44,2.32.89,4.41,2.6,6.78,3.06,3.24.64,7,1.47,9.91.44,13-4.62,12.83-4.87,16.28-19.3,4.13-17.3,8.43-34.58,12.74-51.84,1.56-6.27,6.62-8.08,12.33-4.8,6.87,4,13.81,7.82,20.78,11.62,3.92,2.13,5.43,5.31,5.71,9.72,1.42,21.95,2.27,44,4.89,65.78,2,16.66-.67,32.07-6.92,47.19a47.54,47.54,0,0,1-15.79,20.23c-11.9,8.82-18.14,21.33-23.16,34.7a86,86,0,0,0-4.83,41.22,153.54,153.54,0,0,1,.74,25.46c-.27,5.58,2.35,7.5,6.86,9a61.39,61.39,0,0,1,27,17.18A46.13,46.13,0,0,1,990,577.61a30.24,30.24,0,0,0,4,10c6.11,10.14,10,20.41,6.38,32.61-1.21,4.08.59,9-.13,13.28-.78,4.65-2.88,9.08-4.47,13.59-1.32,3.72-2.76,7.41-4.13,11.12a17.44,17.44,0,0,1-1,2.83c-4.88,8.39-9.42,17-14.86,25.05-4.6,6.79-11.74,10.83-19.6,12.91-4.92,1.31-6.41,3.47-6.15,8.65.76,15.31,1.33,30.66,1,46-.26,10.79,4.09,19.84,8.89,28.62a180.43,180.43,0,0,0,17.74,26.87c20.06,24.73,21.53,51.43,9.28,79.56a238.39,238.39,0,0,1-34.09,56q-3.42,4.17-6.85,8.33H931c-.38-.68-.58-1.66-1.16-2-2.88-1.65-5.8-3.23-8.8-4.63-4.88-2.27-6.33-5.89-5-11,4.94-18.79,9.71-37.63,14.75-56.39,2.68-10,.6-14.59-9.22-17.42-4.39-1.26-9.33-2.88-13.53-2-6.72,1.41-13.09,4.64-19.47,7.4a6.64,6.64,0,0,0-3.26,3.84c-5.61,20.5-11,41-16.5,61.59-1.42,5.33-4.06,7.29-9.46,6.48-3.94-.59-8.07-1-11.66-2.5-7.89-3.34-15.59-7.17-23.12-11.26-1.57-.85-2.4-3.56-3-5.59-3.31-11.31-6.85-22.59-9.52-34.06-3.41-14.6-6.18-29.33-2.8-44.46,3.3-14.76,9.66-27.76,20.25-38.76a62,62,0,0,0,10.52-14.21c7.58-14.76,11-30.9,14.28-47,1-5,1.83-10,2.74-15l-1-.9c-30.87,26.3-66.85,40-107.34,43.22,2.65,8.34,5.32,15.63,7.22,23.12,2,8,3.25,16.16,5,24.21,1.65,7.64,3.78,15.18,5.22,22.85,4,21.08,8.16,42.15,11.33,63.36,2.54,16.92,3.72,34,5.5,51.09ZM354.68,393.61l-5.51.82L341,396.12l-15-1.38-2.7-.54-3.1-.06-4.26-.67-22.75-9.64-10.9-8-5.49-6c-1.63,4.83-2.85,8.43-4.06,12-.55.56-1.39,1-1.59,1.7-5.61,17.83-8.34,36.05-6.91,54.75.28,3.69,1.53,7.3,2.34,10.94.13.62.27,1.24.41,1.86.32.6.64,1.21.95,1.82,4.58,8.93,8.47,18.29,13.92,26.64,5,7.71,12.86,12.32,22.57,10.32A39.72,39.72,0,0,0,317.84,484c8.23-5.43,16.1-11.46,20.26-20.95l-.05,0,2.51-2c1.08-1.52,2.65-2.88,3.14-4.57,3.15-10.76,6.25-21.54,9-32.42,1.56-6.26,2.35-12.7,3.48-19.06.34-3.66.69-7.33,1-11,.06-.51.11-1,.17-1.52ZM98.93,219.8l39.18.07a46.77,46.77,0,0,0,4.81.9c23.13,2,45.78,6.13,67.22,15.52,26.74,11.72,47.52,29.57,58.82,57.2,1.76,4.29,3.49,4.44,7.83.88-.61-1.32-1.26-2.64-1.84-4-9.27-21.7-23.61-39.16-43.45-52a142.17,142.17,0,0,0-48.91-19.89c-11.66-2.4-23.7-2.95-35.57-4.33l-3-.07-20,0-4,.16-19,1.84-4,.38L84.42,218.1,84,219.46c1.09.71,2.23,2.08,3.26,2C91.14,221.17,95,220.4,98.93,219.8Zm221,142.42q-.33-3.63-2.93-1.07a50.21,50.21,0,0,0-5.73-1.27c-6.75-.7-13.52-1.25-20.28-1.85l-6.79.7-.81,2.09a64.8,64.8,0,0,0,5.46,4.1c7.62,4.54,15,9.69,23,13.25a58.53,58.53,0,0,0,46.91.78c2.76-1.11,5.78-3.58,8-.33,2,2.93,3.91,6.9,3.56,10.16a339.11,339.11,0,0,1-5.39,34.27c-2.48,11.74-4.9,23.67-9.15,34.82-7.22,19-21.59,32-39.4,41-11.62,5.9-23.25,5.32-34.27-2.37-7.71-5.39-13.07-12.66-17.57-20.68-6-10.71-11.37-21.95-12.25-34.2-1.63-22.64-.13-45.07,9.41-66.25,1.71-3.79,2.9-7.81,4.65-12.56-6.87.92-12.75,1.57-18.54,2.64-.87.16-1.65,2.24-2,3.56-2.5,9.92-5.15,19.82-7.16,29.85-.82,4.13-1.14,8.82,0,12.78,2.8,10,7.2,19.57,9.76,29.62,4.26,16.67,8.69,33.42,5.78,51-.44,2.64.65,6.07,2.16,8.41a202.93,202.93,0,0,0,12.36,16.75c9.46,11.74,11.64,25.7,12.19,40,.3,8,1.35,15.54,6,22.18,10.73,15.41,15.05,32.72,15,51.23,0,8.86-.66,17.73-1,27.23,6.07-1.1,12.18-2.28,18.32-3.29,8.16-1.34,16.31-3.38,24.51-3.64,20-.63,38.76,5.61,57.44,11.88,7.78,2.61,15.6,5.09,23.4,7.63,11.87,5.07,23.66,10.32,35.62,15.17,20.78,8.42,41.71,16.19,64.46,17.78,23.5,1.64,45.67-2.2,66.14-14.13,29.79-17.37,47.94-44.27,60.94-75.25,7.82-18.62,12.68-38.11,15.68-58,1.26-8.35,1.53-16.85,2.25-25.28q0-15,0-29.93c-1.52-12.83-2.77-25.7-4.69-38.47-.82-5.49-2.17-11.22-4.72-16.08-8.47-16.13-22.49-26.83-37.84-35.77-6.35-3.7-12.57-7.29-17.24-13.08-7.59-10.6-15.92-20.81-18.31-34.48a21.83,21.83,0,0,0-2.68,5.2c-1.18,2.89-2,6-3.62,8.63-7.91,12.88-21.93,16.13-38.11,10.34-13.52-4.83-21.33-15-28.24-26.51-4-6.64-7.73-13.43-11.79-20-.66-1.08-2.73-2.36-3.61-2.05-6.36,2.31-12.58,5-18.84,7.57L449,357.89l-2.05.76L419,364.05l-2.11.5L416,365c-15.23-.05-30.48.35-45.68-.31-12.87-.56-25.67-2.45-38.52-3.52-1.53-.12-3.17,1.24-4.76,1.91Zm231.69-48.53-27.91,13.09L516.82,330l-5.09,2.42c2,3.68,3.58,7,5.54,10,5.11,7.89,10.41,15.66,15.62,23.47,5.25,8.48,13.84,11,22.83,11.94,8.6.94,13.93-3,16.23-11.29,1.32-4.75,1.93-9.71,2.86-14.58.38-1.53,1.11-3.07,1.06-4.59a62.31,62.31,0,0,0-1-11.85c-2.09-9.14-4.59-18.2-7.12-27.23-.24-.86-2.23-2.09-2.8-1.83a46.6,46.6,0,0,0-6.08,3.88ZM546.09,118.3c-1.57,6.06,3.9,8.43,6.63,12.25-1-4.75-2-9.44-6.48-12.44-17.06-34.06-42.44-60.16-75.47-79a164.88,164.88,0,0,0-40.62-16.61l-11.88-3.76-.5,1.68L430,25c5.23,2.51,10.56,4.82,15.67,7.54,38.6,20.52,70.11,49.18,96.4,83.87C542.85,117.42,544.72,117.67,546.09,118.3ZM908,715.85l-9.78-.5L893.1,714l-6.38-.13c-.35,1.87-.71,3.74-1.06,5.61l-7,40.32c-1.49,8.52-2.5,17.15-4.59,25.52-3.56,14.29-12,25.7-22.45,35.87-13.3,12.93-17.91,29.18-15.1,47.07,2.76,17.56,6.85,34.92,10.55,52.33,1.67,7.86,2.91,8.66,11,9.85,2.65.39,3.9-.38,4.59-3.09,4.81-18.67,9.93-37.26,14.6-56,1.69-6.79,4.36-12,11.91-13.37,2.56-.49,4.88-2.15,7.42-2.88,5.34-1.53,11-4.54,16.08-3.78,9.27,1.39,18.35,4.63,27.22,7.9,11.51,4.23,16.53,15.08,13.42,26.83-3.5,13.18-7,26.38-10.14,39.63-1.53,6.34-2.44,12.83-3.63,19.25l1.45.71a31.05,31.05,0,0,0,3.42-3c17.65-20.68,32-43.52,40.22-69.43,6.43-20.18,2.64-39.34-10.74-56.44-8.26-10.55-17.23-20.74-22-33.61-2.43-6.5-6.69-12.81-7.2-19.42-1.47-19.08-1.44-38.28-2-57.43a21.87,21.87,0,0,0-.63-3.28L930,710l-7,3.11-4.71,1.44-2.29.58-6,.69Zm-6.73-187.29,20.45,1.07,4.22.45,6.81,1.55,5,1c-.06-.86-.11-1.73-.17-2.59l0-1.65-.82-16.61-.6-16.75V482c.2-1.91.41-3.82.61-5.73.48-1.76,1-3.51,1.43-5.26q1.29-4.87,2.57-9.75c.34-.83.68-1.66,1-2.49l2.88-7.52c.38-.82.76-1.64,1.15-2.46a75.18,75.18,0,0,1,20.77-28.22,57.67,57.67,0,0,0,12.78-15c7.14-12.44,9.35-26.32,8.35-40.52-1.6-22.76-3.76-45.48-5.38-68.24-.32-4.5-2.11-6.59-6.83-7.32-.54,1.59-1.17,3.08-1.56,4.63-4.35,17.41-8.56,34.86-13,52.24-1.77,6.88-2.12,15-11.81,16.36-2.79.39-5.47,1.64-8.26,1.87-5.16.43-10.16,2.89-15.58.19-7.56-3.76-15.54-6.69-23.14-10.38a23.29,23.29,0,0,1-8.09-6.13,201.62,201.62,0,0,1-12.35-18.13,9.24,9.24,0,0,1-1-6.36q7.75-32.22,16-64.34c1-4-1.68-4.23-3.78-5.71-2.67-1.9-3.87-.36-5.22,1.51-16.2,22.56-32.56,45-48.55,67.71-9,12.76-10.06,26.47-2.72,40.48,12.8,24.46,25.42,49,31.38,76.25,3.11,14.27,8.33,28.07,8.49,43,.13,12,.81,24,1.36,36,.46,10.25.53,10.25,11,9.92Zm-41,117.08-10.22,2.78-3,.55-4,.12L810.47,647a14.11,14.11,0,0,0,.52,1.38c7,15,18.23,26.11,32.48,34.13,6.33,3.56,13.58,5.56,19.69,9.42,5.49,3.47,11,5.55,17.31,5,7.44-.67,14.78-1.64,21.82,1.9a6.86,6.86,0,0,0,2.47.21c9.5.58,17.32-3.67,25-8.53A48.55,48.55,0,0,1,939,686c6.37-2.32,13-3.94,19.22-6.63,4.14-1.79,6.66-5.35,5.43-10.56a4.17,4.17,0,0,1,1.59-3.54C972,661.44,975.85,656,975.94,648a4.19,4.19,0,0,1,1.09-2.72c10.45-9.91,3.11-23.76,7.73-35a4.05,4.05,0,0,0-.51-2.9c-2.56-5-5.27-9.86-7.85-14.82-1-2-2.68-4.08-2.68-6.12,0-13.07-6.65-22-17.29-28.35-12.55-7.52-26.59-10.09-40.9-11.67-21.8-2.4-43.24-1.8-63.68,7.37a14.22,14.22,0,0,0-2.69,2l25.75,7.43c6.78,4.08,13.75,7.87,20.28,12.31,10.92,7.42,14.86,31.29,7.59,44.24-1,1.72-1.89,3.7-3.38,4.85-10.79,8.33-21,17.78-35.35,19.74ZM301.36,50.82l2.54.61,7.23,1.39,1.82.54,6.18,1.46,1.72.73c11.51,4.66,23.5,8.4,34.43,14.16,35,18.44,61.22,46.52,83.59,78.55,19.79,28.34,35,59.15,48.73,90.73a8,8,0,0,0,4.71,4.11c7.72,1.85,15.57,3.17,24.91,5-2.1-2.35-3.17-3.69-4.39-4.87-5.1-5-10-9.79-12.93-16.75-15.53-37.23-34.21-72.75-59.23-104.61-25.61-32.61-55.9-59.12-95.86-72.94a154.2,154.2,0,0,0-49.49-8.33,192.6,192.6,0,0,0-53.72,7.63l-14.21,4.22c.16.67.32,1.35.49,2L242.67,51l14.75-1.68,4.23-.44H283.4l6.48.53,6.49.68,1.62.17ZM685.21,675.77c-1.71-2.6-3.14-5.46-5.19-7.77-7.32-8.24-14.84-16.29-22.43-24.57L636.2,674.49l17.44,22.76c3.75,6.41,7.73,12.71,11.2,19.27C678,741.41,688.62,767.39,695,794.85c4,17,13.33,29.8,27,39.71,7.12,5.15,13.9,3.16,17.68-4.75,4.91-10.28,7.54-20.91,2.74-32.13a70.76,70.76,0,0,1-2.28-7.1C727.43,749.64,710.63,710.64,685.21,675.77ZM727.11,634c-10.85,1.41-21.7,2.86-32.57,4.2-4.52.55-9.07.86-14.91,1.41,4.55,7.68,8,14.89,12.68,21.17a374.47,374.47,0,0,1,45.9,81.31c3.55,8.57,1.32,8.49,11.26,7,10.94-1.68,21.77-4,32.65-6,25.53-6.06,47.22-19,66.3-36.73.42-.38.48-1.16.68-1.69-.39-.37-.59-.68-.87-.8-29.4-12.67-50.2-33.11-58.72-64.73a7.84,7.84,0,0,0-2.29-3.59c-4.6-4-9.29-8-14.07-11.85a5,5,0,0,0-3.7-1.18C755.31,626.21,741.22,630.11,727.11,634ZM682.46,806.89l-2.58-1.17L652,816.88l-2.07,1-3.93,1.2-2,.88-3,.89c-13.54,3.94-27,8.06-40.63,11.78a568.6,568.6,0,0,1-109,18.36c-5.85.43-5.61.6-4.6,6.22,1.44,7.94,3.51,16.16,2.77,24a77.85,77.85,0,0,1-11,32.3c-4.41,7.44-9.94,13.77-18.21,17.1-13,5.24-24.39,1.31-35.06-6.38a120.22,120.22,0,0,1-27.36-32.65c-1.93-3.33-3-7.29-3.85-11.08-1.27-5.4-2-10.91-3.19-17.4-6.81,5.92-12.58,11.09-18.52,16-10.16,8.5-21.1,14.89-35.15,14.06-8.22-.49-15.5,2.44-20.27,9.53-6.18,9.22-12.19,18.58-17.92,28.08-2.92,4.83-5.09,10.12-7.91,15.85,2.66.19,4,.36,5.27.36q61,0,122,0c1.33,0,2.65-.19,4-.29,1.82.12,3.64.33,5.46.33q163.89,0,327.78,0c1.82,0,3.64-.2,5.46-.31,4.89-1,1.18-3.81,1.24-5.83-.21-3.3-.43-6.6-.64-9.9l-1.62-12c-.14-1.68-.28-3.35-.43-5l-1.62-10-.32-4q-.86-4.47-1.69-9l-.36-4-1.65-8c-.13-1.34-.27-2.69-.4-4l-1.59-7-.45-4c-.51-2-1-4-1.54-6l-.42-4-1.2-6.52-2.13-1.23-2.76,4.56-1.42.35-19,.88-1.31-.3-6.52-3.33-23.74-24.57-3.25-4.44c-.6-.85-1.19-1.7-1.79-2.54l-2.13-2.58.09-.31-1.29-5Zm-329.74-86.8a30.48,30.48,0,0,0,2,4.45c13.86,20.83,24,43.52,32.53,66.88,9.45,25.91,16.84,52.46,21,79.82.59,3.92.5,8.56,2.6,11.53,6,8.5,12.33,17,19.81,24.21,8.73,8.38,20.54,7.46,29-1.37a59.34,59.34,0,0,0,11-15.28c2.37-5.06,4.57-11.47,3.55-16.63-7.06-35.76-17.15-70.7-31.5-104.28-10.91-25.54-23.58-50.1-41.52-71.58-2.22-2.86-4.18-6-6.7-8.55-6-6.13-11.07-13.63-19.88-16.16-15.82-4.55-31.81-6.42-48.08-2.08-5.47,1.46-11.09,2.37-17.59,3.72l3.34,3.15c9.22,8.84,18.64,17.48,27.59,26.58C344.57,709.29,348.46,714.87,352.72,720.09ZM688,544q-4.39,19.73-8.81,39.46l1.43.65c8.09-5.37,17.17-9.71,24-16.34,10.28-9.93,15.3-22.92,16.7-37.43,1-10.54,3.11-21,5.14-31.41,2.25-11.55,5.13-23,7.35-34.55.51-2.62-.46-5.56-.94-8.32-.61-3.53-1.86-7-2-10.54a109,109,0,0,1,.5-14,92.83,92.83,0,0,0-12.06-53.75q-11.9-21-24.05-41.92c-3.4-5.88-6.21-12.37-10.74-17.23a22,22,0,0,1-5.89-10.44,36.33,36.33,0,0,0-17.29-23.45,68,68,0,0,1-18.7-16.2c-2.17-2.73-4-2.8-6.68-1.09-5.33,3.37-10.83,6.46-16.19,9.77-5.15,3.18-10.23,6.49-15.33,9.74l-19.82,9.91c.85,1.79,1.32,3,2,4.15,4.68,7.89,8.9,15.94,10,25.27a61.93,61.93,0,0,0,1.31,7.8c2.31,9.32,4.39,18.71,7.19,27.89,3.74,12.31,10.46,22.88,20.94,30.58,7.32,5.39,15.11,10.13,22.62,15.26,23.76,16.25,34.09,39.74,36.3,67.57.72,9.08,1.72,18.15,2.1,27.24.35,8.57,0,17.17.11,25.76C687.26,533.64,687.74,538.84,688,544ZM166,75a10.4,10.4,0,0,0,2.29-.85A244.27,244.27,0,0,1,253,36.71c27-6.21,54.18-6.87,81.23-.58,32.32,7.53,60.09,23.73,84.35,46.07,37.26,34.3,62.93,76.65,83.53,122.28,6.83,15.13,13.52,30,27.48,39.94,1.32,1,3.9,1.81,5,1.17,17.32-10.48,34.48-21.24,51.72-31.86,2.32-1.43,2.16-2.67.84-4.83-8.12-13.26-16.08-26.63-24.09-40l-1.53-3a19.64,19.64,0,0,0-.93-2.27A349.28,349.28,0,0,0,513,98c-37.66-40.66-82-69.73-137.58-79.53a224.81,224.81,0,0,0-74.51-.62,365.81,365.81,0,0,0-75,19.84c-20.86,8-40.67,18-57.29,33.34-1.14,1-1.71,2.73-2.54,4.11l-1.48,0,.15.8ZM119,324.18,115,322.76l-3.06-.57-1.94-.87L107,320.24l-1.93-1-1.34-.41c-.89-.53-1.77-1.07-2.65-1.61l-2.29-1.57c-4.87,8.95-9.48,17.44-14.37,26.44,1.07.89,2.63,2.35,4.36,3.56,8.6,6.05,18.41,9.37,28.56,11.19A252.23,252.23,0,0,0,174,360.27a572.53,572.53,0,0,0,84.18-10c25.43-5,50.77-10.85,75.74-17.8q54.44-15.17,108.23-32.57c39.07-12.64,77-28.38,112.35-49.44C567.36,242.8,579,233,591.2,224.11c5.65-6.41,11.41-12.74,16.84-19.34.64-.79,0-4-.87-4.43-5.37-2.58-11-4.68-16.47-6.94a11.57,11.57,0,0,0,2.2,5.27c7.94,11.51,11,13.22-2.88,23.35l-4,2.41-3.64,2.4L582,227l-2.68,1.81L573,232.46q-1.8,1.2-3.62,2.38L560,240.58l-3.57,2.29L543,251.13l-2.53,1.75L535,255.43l-1.86.95-4.32.07-1.83-.77-3.41-.82L518,253l-4.17-.59L508,251l-4.19-.54L497,248.87l-4.13-.55L487,246.88l-6,.44-2.65,1.5-2.35.4-1.9,1.05-2.1.59-4.58,2-2.41.5-1.85,1L454,257.52l-13.56,5.36-3.44.75-9,3.49-2,.43-3.95,1.62-2,.54-3.93,1.53L413,272.4l-2,.75-4,1.24-1.95.79-2,.44-3.93,1.63L395,278.37l-1.94.83L389,280.47l-1.91.81L383,282.44l-1.9.86-4.11.95-2.85,1.13-2.14.48-3.87,1.49-4.13,1-1.92.84-4.09,1-2.85,1.17-2.15.49-3.9,1.4L344,294.5l-1.88.82L337,296.54l-1.86.84L330,298.5l-1.88.83L323,300.5l-13,3.63-2,.4-5.95,1.65-2.05.46-5,1.47-3,.53-5,1.47-3,.46-5.95,1.61-3.05.47-5.93,1.58-3.08.46-5.93,1.51-4.07.62-5.91,1.43-4.09.54-6.89,1.51-4.11.54-6.91,1.41-5.09.52-7.9,1.48-7.11.64-9.87,1.4-8.13.56-20.85,1.49H153.89L136,326.85l-6.12-.53L123,324.81Zm54,622.75c29.62.1,59.25.24,88.87.16,1.48,0,3.51-1.74,4.34-3.2,7.11-12.54,13.44-25.56,21.09-37.76A302.69,302.69,0,0,1,339,844.41a14,14,0,0,1,2.59-1.5l.62.68c-6,10.22-12,20.44-18.38,31.25,5.48-.5,9.94-.72,14.34-1.35,4-.57,8.53-.68,11.93-2.58,13.53-7.57,23.74-19.14,34.29-30.2.86-.9.85-3.18.47-4.6-7-26.34-15.88-52.06-28.6-76.23-5.29-10.07-12-19.41-18.06-29.07C330.45,718,320.1,707.49,308.7,698c-4.92-4.1-10.38-7.54-16-11.55a18.36,18.36,0,0,0-1.22,3c-5.25,31.13-21.39,55.86-45.06,76-4.37,3.72-9.29,7.51-14.62,9.23a59.62,59.62,0,0,0-24.25,15c-10.78,10.66-24.32,16.8-38.86,20.22-8.85,2.07-18.08,2.63-27.17,3.52-3.54.35-5.67,2-7.7,4.65-25.56,33.8-46.85,70.19-65.75,108-3.3,6.61-6.31,13.36-9.94,21.1H65q36.49,0,73,0C149.65,947.16,161.31,947,173,946.93Zm-.26-573c-9.13,0-18.27.27-27.39-.06-7.4-.26-14.78-1.24-22.17-1.9-5.21-1-10.56-1.63-15.61-3.17-3.66-1.12-5.54-.31-7.12,2.94C93,387,85.42,402.11,78.15,417.39c-6.65,14-12.77,28.43-24.21,39.19-13.64,12.83-19,29.34-22.84,46.66-2.52,11.48-3.77,23.07-8.92,34.06a38.74,38.74,0,0,0-1.6,29.24,24.24,24.24,0,0,1,1.63,8.16c-.13,4.23-1.6,8.45-1.53,12.66.28,17.81,1.09,35.62,1.37,53.43.39,24.25,5.86,46.73,21.42,66.06,4.25,5.29,8.5,10.75,8.28,18.21a5.07,5.07,0,0,0,1.42,3.11c6,6.6,11.64,13.67,18.31,19.53,10,8.81,20.13,17.35,27.46,28.76,4.63,7.19,11.78,11.48,19.43,15.07,6.17,2.89,12.39,4.6,19.28,3.45,5.23-.88,10.51-1.61,15.81-2,17.61-1.37,32.42-8.32,45.14-20.69,5-4.88,11.48-8.37,17.6-12,3.94-2.32,9-3,12.62-5.59,21.07-15,35.35-35,42.07-60,2.45-9.12,3.93-18.49,6-27.71,1.54-6.76,4.17-13.37,4.89-20.2,2.19-20.74.47-40.72-12.24-58.65-3.5-4.94-5.29-11.48-6.53-17.56-1.58-7.79-1.81-15.86-2.64-23.81a31.74,31.74,0,0,0-7.64-18.07c-3.16-3.64-6.16-7.42-9-11.29-7.13-9.59-10.93-20-8.45-32.23a25.06,25.06,0,0,0,.35-9.93c-3.47-15.9-5.69-32.36-11.54-47.38-5.55-14.23-6.53-27.52-2.45-41.71,1.24-4.31,2.67-8.56,3.92-12.87.93-3.21,0-4.58-3.69-4.15-11.25,1.3-22.53,2.34-33.8,3.45C183,373.09,177.82,373.5,172.7,374ZM480.26,233.88c-8.15-16.31-15.3-31.64-23.36-46.48-18.62-34.29-41.07-65.7-71.06-91.18-26-22.13-55.56-37-89.55-41.83-36.4-5.15-71.37,1-104.56,16.36-11.48,5.31-23.14,11.4-32.64,19.55-10,8.53-17.4,20-25.9,30.18-.31.37-.12,1.16-.19,2.24,54.95-7.47,107.92-2.84,157.46,23.34s84,66.15,106.17,118.2ZM86.17,206.32c1.9.75,3.47,2,4.93,1.85,10.44-.85,20.84-2.42,31.3-2.93,32.9-1.61,65.16,1.48,95.8,14.72s53,35,66.62,65.46c3.25,7.25,3,7.2,11,5.46a531.07,531.07,0,0,0,80.08-23.94c8.85-3.46,9.09-3.36,4.8-11.73-35-68.3-88.75-111.45-165.57-123.73-34.64-5.54-69-3.35-103.12,4.16a8.12,8.12,0,0,0-5,4.42c-4.76,12.55-9.45,25.16-13.54,37.95C90.64,186.85,88.79,196,86.17,206.32ZM415.48,687c9.89,16.79,20.18,32.88,29.09,49.69,15.38,29,26.1,59.91,34.87,91.49.95,3.4,2.33,4.22,5.46,4A652.55,652.55,0,0,0,581,817.71c3.26-.75,2.64-2.67,2-4.92-3.12-11-5.88-22.15-9.29-33.08-5.87-18.89-12.8-37.4-22.55-54.69-1-1.8-3.61-4.06-5.32-3.94-28.57,1.95-55.44-4.79-81.69-15.2C448.08,699.49,431.84,693.36,415.48,687ZM267,301.13a38.48,38.48,0,0,1-1.86-3.41c-11.51-30-33.91-48.52-63.09-59.84-32.45-12.59-66.32-14.88-100.67-13.71-3,.1-4.1,1.6-4.27,4.34a302.73,302.73,0,0,0,4.1,68.68,5.84,5.84,0,0,0,2.15,3.73A102.06,102.06,0,0,0,117,308.05c14,5.64,28.82,6.21,43.67,6.46,25.27.43,50.17-2.93,75-7.09C245.89,305.69,256.08,303.34,267,301.13Zm66.06,46.24c2.61.42,4,.76,5.38.85q28.42,1.95,56.84,3.83A143,143,0,0,0,463,339.79c38.94-17.31,77.32-36,115.53-54.86,24.68-12.22,49-25.43,70.72-42.55A58,58,0,0,0,661,229.67c3.86-5.6,2.09-10.37-4.21-12.59-10.77-3.8-21.69-7.17-32.59-10.74-2.06,3.18-3.86,6.36-6,9.25-14.74,19.54-34.51,33.08-55.26,45.21-45.82,26.79-95.29,45.14-145.64,61.13-26.6,8.45-53.65,15.48-80.48,23.21C335.81,345.41,335,346.18,333.09,347.37ZM559.86,719.43a6.35,6.35,0,0,0,.15,1.64c15.18,28.13,24.49,58.39,32.12,89.22.91,3.69,2.5,4.19,5.58,3.28,7.82-2.3,15.68-4.44,23.45-6.86,5.32-1.66,10.52-3.67,16.64-5.84-6.5-18.3-11.95-36.1-19.15-53.15-5.51-13.07-13.23-25.21-20-37.76-1.68-3.13-3.7-3.51-6.93-1.66a67.09,67.09,0,0,1-11.89,5.05C573.29,715.55,566.61,717.4,559.86,719.43Zm323.7-471.51c-3.5-1.76-6.51-3.07-9.32-4.72s-4.65-.89-6.59,1.75c-17.06,23.16-34.46,46.08-51.29,69.41-7.66,10.61-9.79,22.48-3.77,34.87,3.49,7.17,7.29,14.19,10.6,21.44,7.63,16.7,20,31.09,24.06,49.52,3.92,17.85,8.83,35.57,11.34,53.62,2.45,17.58,2.39,35.51,3.49,53.29.12,1.93-.8,4.89,2.93,4.33,2.79-.41,6.23,0,5.82-4.79-.54-6.47-.53-13-1-19.46-.94-13.74-.64-27.76-3.39-41.14a373.3,373.3,0,0,0-15.3-54.16c-5.78-15.66-14.08-30.41-21.55-45.42-8.57-17.21-6.74-33.51,4.08-48.87,10.44-14.82,21.4-29.26,32-44C871.67,265.32,877.39,256.81,883.56,247.92ZM646.06,798.25c9.34-3.84,17.94-7.63,26.74-10.89,3.86-1.42,4.25-3.5,3.14-6.86-8.49-25.57-18.64-50.4-33.06-73.27-5-7.92-10.78-15.35-16.23-23.05l-22,17.55C625.43,730.84,636,763.83,646.06,798.25ZM835.8,572.77c-16.37.71-30.77,2.86-43.28,11.63-8.6,6-12.22,14.22-9.55,22.18,2.29,6.84,7.5,11.37,13.72,14.5,5.16,2.61,10.9,4.09,16,6.76,12.11,6.3,24.91,2.32,37.39,2.95,1.63.09,3.33-1.39,5-2.11,1-.44,2.18-1.25,3.21-1.15,11.86,1.13,18.22-9.16,27.54-13.28a6,6,0,0,0,2.8-4.5c.13-5.43.44-11.07-.89-16.22-.7-2.69-4.64-4.6-7.22-6.73C867.07,575.66,850.9,573.38,835.8,572.77Zm3.93,351a8.2,8.2,0,0,0,.12-2c-3.08-14.8-6.07-29.63-9.34-44.39-2.83-12.76-3.1-25.29,1-37.9,3.57-10.93,10-19.77,18.11-27.62a63.46,63.46,0,0,0,18.89-36c3.16-18.68,6.5-37.33,9.75-56,.44-2.51,1.89-5.34-2.46-6.11-8.49-1.52-8.73-1.38-9.83,3.63-4.5,20.44-8.73,41-13.93,61.23-2.69,10.45-7.34,20.45-15.43,28.09-18.4,17.4-24.21,38.79-20,63.16,1.9,11.13,4.56,22.17,7.53,33.07C826.47,911.58,827.15,921.89,839.73,923.8Zm86.42-568.3c8.49,3.76,16,.46,23.48-1.69,1.2-.34,2.32-2.45,2.7-3.94,5-19.29,9.89-38.58,14.56-57.94,1.89-7.87,1.54-7.85-5.6-11.8-2.61-1.44-3.6-.59-4.19,1.91-1.4,6-2.82,12-4.3,17.92-3.71,15-7.29,30.05-11.33,45-.63,2.29-3.07,4.49-5.23,5.88C933.14,352.78,929.54,354,926.15,355.5Zm5.48,589.3c1.26-6.23,2.29-12.4,3.78-18.46,3.58-14.52,7.44-29,11.07-43.47,1.83-7.33-2.33-14-9.36-15.25,0,3.08.6,6.29-.1,9.18-4.28,17.57-8.81,35.09-13.36,52.59-2.61,10-2.71,10,6.21,15A8.72,8.72,0,0,0,931.63,944.8ZM224.53,55.35c-.17-.4-.26-.87-.4-.88a5.51,5.51,0,0,0-1.33.13c.14.35.22.94.43,1A3.37,3.37,0,0,0,224.53,55.35Z"/><path class="cls-2" d="M669.61,531c-.72,8.43-1,16.93-2.25,25.28-3,19.92-7.86,39.41-15.68,58-13,31-31.15,57.88-60.94,75.25-20.47,11.93-42.64,15.77-66.14,14.13-22.75-1.59-43.68-9.36-64.46-17.78-12-4.85-23.75-10.1-35.62-15.17-5.55-5-11.23-9.81-16.6-15-9.16-8.78-18.53-17.85-21.53-30.55-2.24-9.45-2.74-19.44-2.94-29.21-.55-26.58,2.2-52.82,10-78.36,3.86-12.61,11.23-23.33,19.22-33.51,12.59-16,18.19-33.86,15.35-54-1.85-13.16-4.35-26.24-6.75-39.32-1.59-8.63-3.53-17.19-5.31-25.79l.94-.46,2.11-.5,27.91-5.4,2.05-.76,30.92-11.54c1.36,1.48,3.21,2.73,4,4.46,15.25,32.94,35.56,44.74,67.64,43.91,18-.47,35.8,0,53.55,2.95,4.67,5.79,10.89,9.38,17.24,13.08,15.35,8.94,29.37,19.64,37.84,35.77,2.55,4.86,3.9,10.59,4.72,16.08,1.92,12.77,3.17,25.64,4.69,38.47-.85,1.08-2.42,2.15-2.45,3.25q-.33,11.71,0,23.44C667.18,528.86,668.75,529.92,669.61,531ZM597.87,428.48c-1-.55-1.88-1.44-2.91-1.6-15.87-2.5-31.83-3.49-47.56.47-28.36,7.15-51.55,22.27-68.65,46.23-3.64,5.11-6.8,10.55-10.19,15.84l.95.78,3.42-1.38c1.3,2.85,2.66,1.91,4.51.36a309.7,309.7,0,0,1,57.38-37.94c3-1.53,6-3,9.14-.45-6.63,5.42-14.23,10-19.67,16.46-9.63,11.4-7,24.6,5.2,33.11,5,3.5,10.49,6.53,15.09,10.53,8,7,16.59,5.88,25.2,2.41,9-3.6,15.13-10,18.77-19.38s9.09-18.07,12.87-27.42c4.17-10.29-.07-20.95-9.34-24.81-3.46-1.44-7.36-1.8-11.06-2.65-.07-1.26-.13-2.51-.18-3.47,5.44-1.57,10.6-3,15.69-4.62C597.17,430.74,597.43,429.33,597.87,428.48ZM513.5,638.64c1.1,10.41,1.93,20.86,3.39,31.22a141.94,141.94,0,0,0,4.22,18.48c1.57,5.6,5.57,6.53,9.58,2.63a74.78,74.78,0,0,1,5.86-5.41,495.89,495.89,0,0,1,76.25-48.72A90.79,90.79,0,0,1,634,629.1c4.28-1,6.38-2.45,6.33-6.56-.26-21.57-2.21-42.84-11.15-62.91-8.65-19.38-26.78-29.27-45.64-23.86-22.37,6.41-40.26,19.31-52.93,39C518.15,594.24,514.07,615.86,513.5,638.64Z"/><path class="cls-3" d="M123.14,372c7.39.66,14.77,1.64,22.17,1.9,9.12.33,18.26.06,27.39.06.33,11.29,2.5,21.94,8.71,31.78A33.79,33.79,0,0,1,186,420c.9,9.23,0,18.78,8.21,25.59a6,6,0,0,1,1,1.72c10.2,18.72,17.28,38.42,18.56,59.88.65,11-3.13,14.51-13.37,12.87-.24,0-.53.32-1.12.7,3,11,11.84,18.5,17.72,27.94-11.91-5.38-23.08-12.05-36.58-12.42a8.06,8.06,0,0,0,2.14,3.9c9.46,9.38,18.72,19,28.57,28,4.45,4,10,7,15.28,10a44.34,44.34,0,0,0,9.68,3.92c13.44,3.91,18.55,13.84,20.26,26.72,1.09,8.22,1.59,16.9,4.77,24.34,3.69,8.65,3.18,16.27.38,24.6-1.57,4.67-3.36,9.71-3.08,14.46.39,6.41-2.05,10.54-6.82,13.9a44.54,44.54,0,0,1-8.06,4.91c-13.66,5.75-20.47,16.23-21.8,30.66a16,16,0,0,1-7.26,12,74.27,74.27,0,0,1-12.84,7.58c-11.24,4.8-21.57,12-34.08,13.48-10,1.21-20,1-29.55-2.72-5.77-2.26-11-5.94-16.87-7.91-16.21-5.44-27.9-15.29-34.68-31.31-3.34-7.9-8.16-15.22-12.69-22.57-1.79-2.91-4.62-5.19-7-7.76l-1.58.86c-1,9.73,3.69,18.69,5.25,29.61-6.58-3.2-12.26-5.43-17.39-8.57-10.62-6.47-13.62-14.82-10.52-26.86,3.51-13.66,3-27.18-3-40a68.13,68.13,0,0,1-6.78-34.39c1.35-18.72,3.1-37.43,5.12-56.1.78-7.27,2.74-14.41,4.17-21.61l1.26,0c.64,2,1.22,4,1.92,5.91,3.36,9.36,6.52,18.81,10.29,28,.82,2,3.78,4.22,5.85,4.32,1.51.08,4-2.91,4.64-5,2.28-7.25,4.63-14.59,5.7-22.08,1.88-13.15,2.57-26.48,4.23-39.67a262.84,262.84,0,0,1,22.19-77.35C105.64,403.29,114.76,387.81,123.14,372Z"/><path class="cls-4" d="M480.26,233.88l-83.63,30.38c-22.16-52-56.61-92-106.17-118.2S188,115.25,133,122.72c.07-1.08-.12-1.87.19-2.24,8.5-10.21,15.95-21.65,25.9-30.18,9.5-8.15,21.16-14.24,32.64-19.55,33.19-15.35,68.16-21.51,104.56-16.36,34,4.8,63.52,19.7,89.55,41.83,30,25.48,52.44,56.89,71.06,91.18C465,202.24,472.11,217.57,480.26,233.88Z"/><path class="cls-5" d="M123.14,372c-8.38,15.82-17.5,31.3-25,47.53A262.84,262.84,0,0,0,76,496.87c-1.66,13.19-2.35,26.52-4.23,39.67-1.07,7.49-3.42,14.83-5.7,22.08-.65,2.06-3.13,5-4.64,5-2.07-.1-5-2.3-5.85-4.32-3.77-9.19-6.93-18.64-10.29-28-.7-1.95-1.28-3.94-1.92-5.91l-1.26,0c-1.43,7.2-3.39,14.34-4.17,21.61-2,18.67-3.77,37.38-5.12,56.1a68.13,68.13,0,0,0,6.78,34.39c6,12.82,6.54,26.34,3,40-3.1,12-.1,20.39,10.52,26.86,5.13,3.14,10.81,5.37,17.39,8.57-1.56-10.92-6.3-19.88-5.25-29.61l1.58-.86c2.35,2.57,5.18,4.85,7,7.76,4.53,7.35,9.35,14.67,12.69,22.57,6.78,16,18.47,25.87,34.68,31.31,5.85,2,11.1,5.65,16.87,7.91,9.52,3.73,19.52,3.93,29.55,2.72,12.51-1.5,22.84-8.68,34.08-13.48a74.27,74.27,0,0,0,12.84-7.58,16,16,0,0,0,7.26-12c1.33-14.43,8.14-24.91,21.8-30.66a44.54,44.54,0,0,0,8.06-4.91c4.77-3.36,7.21-7.49,6.82-13.9-.28-4.75,1.51-9.79,3.08-14.46,2.8-8.33,3.31-16-.38-24.6-3.18-7.44-3.68-16.12-4.77-24.34-1.71-12.88-6.82-22.81-20.26-26.72a44.34,44.34,0,0,1-9.68-3.92c-5.28-3-10.83-6-15.28-10-9.85-9-19.11-18.58-28.57-28a8.06,8.06,0,0,1-2.14-3.9c13.5.37,24.67,7,36.58,12.42-5.88-9.44-14.68-16.94-17.72-27.94.59-.38.88-.74,1.12-.7,10.24,1.64,14-1.87,13.37-12.87-1.28-21.46-8.36-41.16-18.56-59.88a6,6,0,0,0-1-1.72C186,438.8,186.94,429.25,186,420a33.79,33.79,0,0,0-4.63-14.29c-6.21-9.84-8.38-20.49-8.71-31.78,5.12-.45,10.25-.86,15.37-1.36,11.27-1.11,22.55-2.15,33.8-3.45,3.69-.43,4.62.94,3.69,4.15-1.25,4.31-2.68,8.56-3.92,12.87-4.08,14.19-3.1,27.48,2.45,41.71,5.85,15,8.07,31.48,11.54,47.38a25.06,25.06,0,0,1-.35,9.93c-2.48,12.19,1.32,22.64,8.45,32.23,2.87,3.87,5.87,7.65,9,11.29a31.74,31.74,0,0,1,7.64,18.07c.83,8,1.06,16,2.64,23.81,1.24,6.08,3,12.62,6.53,17.56,12.71,17.93,14.43,37.91,12.24,58.65-.72,6.83-3.35,13.44-4.89,20.2-2.1,9.22-3.58,18.59-6,27.71-6.72,25-21,45-42.07,60-3.67,2.61-8.68,3.27-12.62,5.59-6.12,3.59-12.59,7.08-17.6,12-12.72,12.37-27.53,19.32-45.14,20.69-5.3.42-10.58,1.15-15.81,2-6.89,1.15-13.11-.56-19.28-3.45-7.65-3.59-14.8-7.88-19.43-15.07-7.33-11.41-17.42-20-27.46-28.76-6.67-5.86-12.3-12.93-18.31-19.53a5.07,5.07,0,0,1-1.42-3.11c.22-7.46-4-12.92-8.28-18.21-15.56-19.33-21-41.81-21.42-66.06C21.77,623,21,605.17,20.68,587.36c-.07-4.21,1.4-8.43,1.53-12.66a24.24,24.24,0,0,0-1.63-8.16,38.74,38.74,0,0,1,1.6-29.24c5.15-11,6.4-22.58,8.92-34.06,3.8-17.32,9.2-33.83,22.84-46.66,11.44-10.76,17.56-25.21,24.21-39.19C85.42,402.11,93,387,100.41,371.76c1.58-3.25,3.46-4.06,7.12-2.94C112.58,370.36,117.93,371,123.14,372Z"/><path class="cls-6" d="M416,365c1.78,8.6,3.72,17.16,5.31,25.79,2.4,13.08,4.9,26.16,6.75,39.32,2.84,20.17-2.76,38-15.35,54-8,10.18-15.36,20.9-19.22,33.51-7.82,25.54-10.57,51.78-10,78.36.2,9.77.7,19.76,2.94,29.21,3,12.7,12.37,21.77,21.53,30.55,5.37,5.15,11.05,10,16.6,15-7.8-2.54-15.62-5-23.4-7.63-18.68-6.27-37.44-12.51-57.44-11.88-8.2.26-16.35,2.3-24.51,3.64-6.14,1-12.25,2.19-18.32,3.29.39-9.5,1-18.37,1-27.23,0-18.51-4.3-35.82-15-51.23-4.62-6.64-5.67-14.21-6-22.18-.55-14.33-2.73-28.29-12.19-40a202.93,202.93,0,0,1-12.36-16.75c-1.51-2.34-2.6-5.77-2.16-8.41,2.91-17.61-1.52-34.36-5.78-51-2.56-10.05-7-19.62-9.76-29.62-1.11-4-.79-8.65,0-12.78,2-10,4.66-19.93,7.16-29.85.33-1.32,1.11-3.4,2-3.56,5.79-1.07,11.67-1.72,18.54-2.64-1.75,4.75-2.94,8.77-4.65,12.56-9.54,21.18-11,43.61-9.41,66.25.88,12.25,6.24,23.49,12.25,34.2,4.5,8,9.86,15.29,17.57,20.68,11,7.69,22.65,8.27,34.27,2.37,17.81-9,32.18-22.07,39.4-41,4.25-11.15,6.67-23.08,9.15-34.82a339.11,339.11,0,0,0,5.39-34.27c.35-3.26-1.59-7.23-3.56-10.16-2.18-3.25-5.2-.78-8,.33a58.53,58.53,0,0,1-46.91-.78c-8.06-3.56-15.43-8.71-23-13.25a64.8,64.8,0,0,1-5.46-4.1l.81-2.09L291,358c4.54,3.24,8.65,7.63,13.7,9.47a136.41,136.41,0,0,0,26.93,6.78c9.15,1.33,18.23-.82,27-4.41a8.35,8.35,0,0,0-4-1.81c-6.57-1-13.17-1.81-19.72-2.88-2.68-.44-5.28-1.38-7.91-2.08,1.59-.68,3.23-2,4.76-1.92,12.85,1.07,25.65,3,38.52,3.52C385.5,365.36,400.75,365,416,365Z"/><path class="cls-7" d="M86.17,206.32c2.62-10.32,4.47-19.47,7.3-28.31,4.09-12.79,8.78-25.4,13.54-37.95a8.12,8.12,0,0,1,5-4.42c34.11-7.51,68.48-9.7,103.12-4.16,76.82,12.28,130.62,55.43,165.57,123.73,4.29,8.37,4,8.27-4.8,11.73a531.07,531.07,0,0,1-80.08,23.94c-7.93,1.74-7.71,1.79-11-5.46-13.66-30.48-36-52.22-66.62-65.46s-62.9-16.33-95.8-14.72c-10.46.51-20.86,2.08-31.3,2.93C89.64,208.29,88.07,207.07,86.17,206.32Z"/><path class="cls-8" d="M338.2,730.81c6.06,9.66,12.77,19,18.06,29.07,12.72,24.17,21.56,49.89,28.6,76.23.38,1.42.39,3.7-.47,4.6-10.55,11.06-20.76,22.63-34.29,30.2-3.4,1.9-7.89,2-11.93,2.58-4.4.63-8.86.85-14.34,1.35,6.35-10.81,12.37-21,18.38-31.25l-.62-.68a14,14,0,0,0-2.59,1.5,302.69,302.69,0,0,0-51.74,61.72c-7.65,12.2-14,25.22-21.09,37.76-.83,1.46-2.86,3.19-4.34,3.2-29.62.08-59.25-.06-88.87-.16a11.27,11.27,0,0,1,.72-2.84c19.91-35.75,39.74-71.56,59.85-107.2,12.21-21.64,27.33-41.19,44.39-59.21C295.61,759,316,743.76,338.2,730.81Z"/><path class="cls-9" d="M338.2,730.81c-22.17,13-42.59,28.18-60.28,46.87-17.06,18-32.18,37.57-44.39,59.21-20.11,35.64-39.94,71.45-59.85,107.2a11.27,11.27,0,0,0-.72,2.84c-11.65.08-23.31.23-35,.25q-36.5,0-73,0H58.16c3.63-7.74,6.64-14.49,9.94-21.1,18.9-37.84,40.19-74.23,65.75-108,2-2.69,4.16-4.3,7.7-4.65,9.09-.89,18.32-1.45,27.17-3.52,14.54-3.42,28.08-9.56,38.86-20.22a59.62,59.62,0,0,1,24.25-15c5.33-1.72,10.25-5.51,14.62-9.23,23.67-20.15,39.81-44.88,45.06-76a18.36,18.36,0,0,1,1.22-3c5.59,4,11,7.45,16,11.55C320.1,707.49,330.45,718,338.2,730.81Z"/><path class="cls-10" d="M944.66,451.29l-2.88,7.52c-.35.83-.69,1.66-1,2.49q-1.29,4.88-2.57,9.75c-.48,1.75-.95,3.5-1.43,5.26-.2,1.91-.41,3.82-.61,5.73v13q.3,8.37.59,16.75t.83,16.61l0,1.65-4.82,1.6L926,530.08c-.1-14.3.26-28.63-.44-42.9-.79-16-.88-31.57,8.13-45.74a5.08,5.08,0,0,0,0-4.53,4.83,4.83,0,0,0-4.15-1.64c-7,1.82-13.61.36-20-1.94-7.49-2.68-14.72-6.05-22.12-9-1.37-.54-3.61-1-4.44-.28-1.13,1-1.58,3-1.77,4.69-.14,1.23.64,2.55.93,3.84,2.36,10.35,6,20.6,6.75,31.06,1.36,19.72,1.07,39.55,1.32,59.34,0,1.85-1,3.71-1.49,5.56-10.47.33-10.54.33-11-9.92-.55-12-1.23-24-1.36-36-.16-14.89-5.38-28.69-8.49-43-6-27.28-18.58-51.79-31.38-76.25-7.34-14-6.26-27.72,2.72-40.48,16-22.71,32.35-45.15,48.55-67.71,1.35-1.87,2.55-3.41,5.22-1.51,2.1,1.48,4.8,1.75,3.78,5.71q-8.31,32.1-16,64.34a9.24,9.24,0,0,0,1,6.36A201.62,201.62,0,0,0,894,348.32a23.29,23.29,0,0,0,8.09,6.13c7.6,3.69,15.58,6.62,23.14,10.38,5.42,2.7,10.42.24,15.58-.19,2.79-.23,5.47-1.48,8.26-1.87,9.69-1.35,10-9.48,11.81-16.36,4.48-17.38,8.69-34.83,13-52.24.39-1.55,1-3,1.56-4.63,4.72.73,6.51,2.82,6.83,7.32,1.62,22.76,3.78,45.48,5.38,68.24,1,14.2-1.21,28.08-8.35,40.52a57.67,57.67,0,0,1-12.78,15,75.18,75.18,0,0,0-20.77,28.22C945.42,449.65,945,450.47,944.66,451.29Z"/><path class="cls-11" d="M425.29,924.23c10.67,7.7,22,11.63,35.06,6.39,8.27-3.33,13.8-9.66,18.21-17.1a77.85,77.85,0,0,0,11-32.3c.74-7.86-1.33-16.08-2.77-24-1-5.62-1.25-5.79,4.6-6.22a568.6,568.6,0,0,0,109-18.36c13.59-3.72,27.09-7.84,40.63-11.78-1.7,4.47-6.47,4.29-9.72,6.4-1.06.68-2.2,1.24-3.3,1.86-4.4-1.72-7,.4-8.53,4.25-2.63,6.45-5.34,12.88-7.62,19.46a10.52,10.52,0,0,0,.11,6.63c3.12,8.21,6.67,16.25,10,24.37,2.9,7.07,5.71,14.17,8.77,21.78a40.63,40.63,0,0,1-5,.43c-3.27-.2-6.71.53-7.17,3.82-.31,2.22,1.47,5.33,3.24,7.12,4.25,4.28,8.57,9,15.3,7.1,1.43,3.74,2.62,6.82,3.78,9.92,1.21,3.26,2.39,6.53,3.58,9.79-2.32.09-4.65.25-7,.25q-103.8,0-207.61.1c-2.44,0-4.89,1.25-7.34,1.92.2-2.61.26-5.24.61-7.84C423.77,933.54,424.56,928.89,425.29,924.23Z"/><path class="cls-12" d="M513.87,252.4,518,253l5.57,1.87,3.41.82,1.83.77,4.32-.07,1.86-.95,5.46-2.55,2.53-1.75,13.45-8.26,3.57-2.29,9.37-5.73,3.62-2.39,6.31-3.67L582,227l.37-.15,3.64-2.4,4-2.41,1.18,2.09C579,233,567.36,242.8,554.46,250.48c-35.37,21.06-73.28,36.8-112.35,49.44q-53.76,17.38-108.23,32.57c-25,6.95-50.31,12.76-75.74,17.8a572.53,572.53,0,0,1-84.18,10,252.23,252.23,0,0,1-56.67-3.45c-10.15-1.82-20-5.14-28.56-11.19-1.73-1.21-3.29-2.67-4.36-3.56,4.89-9,9.5-17.49,14.37-26.44L101,317.2c.88.54,1.76,1.08,2.65,1.61l1.34.41,1.93,1,3.07,1.08,1.94.87,3.06.57,3.94,1.42,4.06.63,6.89,1.51,6.12.53c5.73,3.23,11.78,2.56,17.86,1.49h15.27c7.08,1.3,14.07,1.28,20.85-1.49l8.13-.56,9.87-1.4,7.11-.64,7.9-1.48,5.09-.52,6.91-1.41,4.11-.54,6.89-1.51,4.09-.54,5.91-1.43,4.07-.62,5.93-1.51,3.08-.46,5.93-1.58,3.05-.47,5.95-1.61,3-.46,5-1.47,3-.53,5-1.47,2.05-.46,5.95-1.65,2-.4,13-3.63,5.13-1.17,1.88-.83,5.14-1.12,1.86-.84,5.12-1.22,1.88-.82,5.09-1.23,3.9-1.4,2.15-.49,2.85-1.17,4.09-1,1.92-.84,4.13-1,3.87-1.49,2.14-.48,2.85-1.13,4.11-.95,1.9-.86,4.09-1.16,1.91-.81,4.06-1.27,1.94-.83,4.08-1.12,3.93-1.63,2-.44,1.95-.79,4-1.24,2-.75,3.08-1.16,3.93-1.53,2-.54,3.95-1.62,2-.43,9-3.49,3.45-.75L454,257.52l9.15-3.13,1.85-1,2.41-.5,4.58-2,2.1-.59,1.9-1.05,2.36-.4,2.64-1.5,6-.44,5.87,1.44,4.13.55,6.82,1.57L508,251Z"/><path class="cls-13" d="M563,168.94c8,13.33,16,26.7,24.09,40,1.32,2.16,1.48,3.4-.84,4.83-17.24,10.62-34.4,21.38-51.72,31.86-1.06.64-3.64-.22-5-1.17-14-10-20.65-24.81-27.48-39.94-20.6-45.63-46.27-88-83.53-122.28-24.26-22.34-52-38.54-84.35-46.07C307.13,29.84,280,30.5,253,36.71a244.27,244.27,0,0,0-84.66,37.45A10.4,10.4,0,0,1,166,75l.08.13c.83-1.39,1.4-3.07,2.54-4.12,16.62-15.36,36.43-25.31,57.29-33.34a365.81,365.81,0,0,1,75-19.84,224.81,224.81,0,0,1,74.51.62C431,28.26,475.35,57.33,513,98a349.28,349.28,0,0,1,47.5,65.69,19.64,19.64,0,0,1,.93,2.27l-14.89,8.27a53.76,53.76,0,0,1-3.26-4.91c-7.47-14.76-14.76-29.62-22.44-44.27a15.44,15.44,0,0,0-6.47-6.26c-8.44-4.13-17.17-7.7-25.9-11.53-.48.66-1.11,1.15-1.18,1.71-1.16,9-2.35,18.06-3.24,27.11a7.91,7.91,0,0,0,1.63,5q15.8,21.1,31.85,42c2.3,3,2.19,4.95-1.74,6.25-3.65,1.21-7.16,2.81-12,4.75,3.38,1.84,5.48,2.78,7.35,4.05,5.68,3.84,11.29,5.22,17.46.85,1.26-.89,3.45-.48,6.3-.78L531,204.46c3.15,4.23,6.05,8.5,9.4,12.38.94,1.1,3.56,1.91,4.81,1.39,6.12-2.55,12.08-5.49,17.95-8.57.93-.48,1.92-3.09,1.53-3.54-4.7-5.39-3.39-16.24-14.79-16A21.24,21.24,0,0,1,555,186c3.75-2,7-4.05,6.3-9.36C561,174.2,562.36,171.52,563,168.94Z"/><path class="cls-10" d="M930,710l11.89-7a21.87,21.87,0,0,1,.63,3.28c.59,19.15.56,38.35,2,57.43.51,6.61,4.77,12.92,7.2,19.42,4.79,12.87,13.76,23.06,22,33.61,13.38,17.1,17.17,36.26,10.74,56.44-8.26,25.91-22.57,48.75-40.22,69.43a31.05,31.05,0,0,1-3.42,3l-1.45-.71c1.19-6.42,2.1-12.91,3.63-19.25,3.19-13.25,6.64-26.45,10.14-39.63,3.11-11.75-1.91-22.6-13.42-26.83-8.87-3.27-17.95-6.51-27.22-7.9-5.07-.76-10.74,2.25-16.08,3.78-2.54.73-4.86,2.39-7.42,2.88-7.55,1.42-10.22,6.58-11.91,13.37-4.67,18.71-9.79,37.3-14.6,56-.69,2.71-1.94,3.48-4.59,3.09-8-1.19-9.28-2-11-9.85-3.7-17.41-7.79-34.77-10.55-52.33-2.81-17.89,1.8-34.14,15.1-47.07C862,811,870.46,799.58,874,785.29c2.09-8.37,3.1-17,4.59-25.52l7-40.32c.35-1.87.71-3.74,1.06-5.61l6.38.13c-.36,15.09,0,30.24-1.35,45.24-.77,8.82-4.32,17.38-6.25,26.13-.48,2.17.47,4.66.77,7,1.82-.33,3.8-.3,5.43-1,11.31-5.08,22.94-8.18,35.36-5.43,6.92,1.53,8.8.2,7.07-6.77C928.47,756.32,930.28,733.12,930,710Z"/><path class="cls-7" d="M415.48,687c16.36,6.32,32.6,12.45,48.72,18.84,26.25,10.41,53.12,17.15,81.69,15.2,1.71-.12,4.3,2.14,5.32,3.94,9.75,17.29,16.68,35.8,22.55,54.69,3.41,10.93,6.17,22,9.29,33.08.63,2.25,1.25,4.17-2,4.92A652.55,652.55,0,0,1,484.9,832.2c-3.13.24-4.51-.58-5.46-4-8.77-31.58-19.49-62.49-34.87-91.49C435.66,719.92,425.37,703.83,415.48,687Z"/><path class="cls-4" d="M267,301.13c-10.95,2.21-21.14,4.56-31.42,6.29-24.81,4.16-49.71,7.52-75,7.09-14.85-.25-29.66-.82-43.67-6.46a102.06,102.06,0,0,1-13.57-7.13,5.84,5.84,0,0,1-2.15-3.73,302.73,302.73,0,0,1-4.1-68.68c.17-2.74,1.26-4.24,4.27-4.34,34.35-1.17,68.22,1.12,100.67,13.71,29.18,11.32,51.58,29.85,63.09,59.84A38.48,38.48,0,0,0,267,301.13Z"/><path class="cls-3" d="M688,544c-.3-5.2-.78-10.4-.86-15.6-.15-8.59.24-17.19-.11-25.76-.38-9.09-1.38-18.16-2.1-27.24-2.21-27.83-12.54-51.32-36.3-67.57-7.51-5.13-15.3-9.87-22.62-15.26-10.48-7.7-17.2-18.27-20.94-30.58-2.8-9.18-4.88-18.57-7.19-27.89a61.93,61.93,0,0,1-1.31-7.8c-1.06-9.33-5.28-17.38-10-25.27-.67-1.13-1.14-2.36-2-4.15L604.48,287c6.26,8.39,12.28,17,18.84,25.1,7.06,8.78,14.5,17.26,22.06,25.61,1.29,1.42,5,2.74,5.83,2,1.56-1.32,2.86-4.35,2.49-6.34-2-10.91-4.53-21.72-6.89-32.56-.31-1.42-.69-2.83-1.26-5.19a13.15,13.15,0,0,1,2.28,1.52c12.88,16.5,26.22,32.69,38.43,49.68,7.45,10.35,13.6,21.81,15.28,34.87,2.15,16.7,8.53,31.16,20.53,43.28,2.8,2.83,4.52,7.5,5.13,11.56,1.73,11.49-3.65,21.12-9.59,31.72-4.59-9.31-4.32-19.77-12.14-28.07-1.9,12.73-.91,23.95.41,35.12,1.35,11.44,3.33,23-1,34.06-3,7.69-7.33,14.86-11,22.3C691.88,535.78,690,539.92,688,544Z"/><path class="cls-11" d="M401.19,697.84c17.94,21.48,30.61,46,41.52,71.58,14.35,33.58,24.44,68.52,31.5,104.28,1,5.16-1.18,11.57-3.55,16.63a59.34,59.34,0,0,1-11,15.28c-8.43,8.83-20.24,9.75-29,1.37-7.48-7.17-13.78-15.71-19.81-24.21-2.1-3-2-7.61-2.6-11.53-4.16-27.36-11.55-53.91-21-79.82-8.51-23.36-18.67-46-32.53-66.88a30.48,30.48,0,0,1-2-4.45c5.17-3.26,10.27-6.63,15.52-9.75C378.48,704.26,388.81,698.32,401.19,697.84Zm39.46,188.1c9.62,0,17.9-7.55,17.94-16.39.05-8.62-7.44-15.56-16.78-15.55-10,0-17.6,7.08-17.63,16.4C424.16,879.33,431.16,885.94,440.65,885.94Z"/><path class="cls-14" d="M628,829.1c1.1-.62,2.24-1.18,3.3-1.86,3.25-2.11,8-1.93,9.72-6.4l3-.89,2-.88,3.93-1.19,2.07-1,27.86-11.16,2.58,1.17c.21.71.41,1.41.61,2.12-1.39,2.14-2.32,4.16,1.3,5l-.09.31,2.13,2.58c.6.84,1.19,1.69,1.79,2.54-.24,2.45-.65,5,3.25,4.44l23.74,24.57c.65,4.1,4.06,2.77,6.52,3.33l1.31.3c1.11,1,2.14,2.67,3.34,2.8,3,.35,6.18-.36,9.21,0,3.3.4,5.3-.7,6.45-3.68l1.42-.35L747,854l-2,2.87,1.51.64L747,854h2.5l.42,4c-1.8,2.59-.75,4.44,1.54,6l.45,4c-1.74,2.84-1.19,5.16,1.59,7,.13,1.35.27,2.7.4,4-1.49,3.08-1.56,5.86,1.65,8l.36,4c-1.8,3.43-1.08,6.39,1.69,9,.1,1.35.21,2.69.32,4-1.29,3.62-2.2,7.17,1.62,10l.43,5c-1.51,4.27-2,8.4,1.62,12,.21,3.3.43,6.6.64,9.9-.41,1.94-.83,3.89-1.24,5.83-1.82.11-3.64.31-5.46.31q-163.89,0-327.78,0c-1.82,0-3.64-.21-5.47-.33.08-.23.16-.46.22-.7,2.45-.67,4.9-1.92,7.34-1.92q103.8-.17,207.61-.1c2.32,0,4.65-.16,7-.25L659,943c3.18,1.36,6.42,2.95,8-2,3.74-.4,5.23-2.91,4.94-6.2-.34-3.93-1.31-7.81-2-11.7-.33-1-.67-2-1-3.05a2.67,2.67,0,0,1-.15-.88c.4-.75.81-1.5,1.22-2.25,1.54-1.18,3.86-2.06,4.46-3.61a59.81,59.81,0,0,0,3.34-12.4c.51-3.21-1.72-5.18-4.85-4.78-3.32.43-6.55,1.65-10.58,2.73-2.73-12.45-5.49-25.47-8.5-38.44-1.53-6.59-1.7-13.72-8.49-18.16C639.33,838.27,633.78,833.51,628,829.1ZM670.75,942l0,1.53h88.82c-.48-1.26-.85-2.25-1-2.63a67.24,67.24,0,0,1-8.12,1.06c-24.77.07-49.54,0-74.32,0ZM749,867.8c-.28-.52-.48-.91-.67-1.3a5.23,5.23,0,0,0-1.11,1.09c-.08.14.41.82.73.89S748.6,868.08,749,867.8Zm3,25.07c.37-.53.78-.85.79-1.19s-.33-.77-.52-1.16a4.28,4.28,0,0,0-1,1.14C751.15,891.87,751.64,892.32,752,892.87Zm-1.35-15.09c-.28-.11-.62-.39-.82-.31s-.25.51-.37.79c.27.11.61.39.81.31S750.54,878.06,750.66,877.78Z"/><path class="cls-15" d="M874.91,563.29l-25.75-7.43a14.22,14.22,0,0,1,2.69-2c20.44-9.17,41.88-9.77,63.68-7.37,14.31,1.58,28.35,4.15,40.9,11.67,10.64,6.36,17.3,15.28,17.29,28.35,0,2,1.64,4.13,2.68,6.12,2.58,5,5.29,9.85,7.85,14.82a4.05,4.05,0,0,1,.51,2.9c-4.62,11.2,2.72,25.05-7.73,35a4.19,4.19,0,0,0-1.09,2.72c-.09,8-3.94,13.45-10.72,17.31a4.17,4.17,0,0,0-1.59,3.54c1.23,5.21-1.29,8.77-5.43,10.56-6.2,2.69-12.85,4.31-19.22,6.63a48.55,48.55,0,0,0-9.22,4.42c-7.68,4.86-15.5,9.11-25,8.53a6.86,6.86,0,0,1-2.47-.21c-7-3.54-14.38-2.57-21.82-1.9-6.28.57-11.82-1.51-17.31-5-6.11-3.86-13.36-5.86-19.69-9.42-14.25-8-25.44-19.15-32.48-34.13a14.11,14.11,0,0,1-.52-1.38L843,649.09c.65,1.15,1,2.83,2,3.36,9.34,5.1,18.92,9.47,30,7.61a4,4,0,0,1,2,.18c7.29,2.7,13.35.13,19.52-3.73,3.52-2.21,8-2.86,11.89-4.53,3.54-1.51,9.06-2.77,9.88-5.35,1.8-5.67,6-9.06,8.94-13.57.66-1,.47-2.54.8-3.8s.49-3.11,1.38-4.08c6.1-6.67,1.18-15.45,4.42-22.66.33-.74-.67-2.14-1.18-3.18-2.79-5.63-8.15-10.25-6.93-17.49.06-.38-.49-.84-.69-1.29-3.6-8-10.15-12.62-18.32-14.45-9.61-2.14-19.4-3.42-29.15-4.88C876.81,561.12,875.81,562.57,874.91,563.29Z"/><path class="cls-16" d="M333.09,347.37c1.92-1.19,2.72-2,3.68-2.23,26.83-7.73,53.88-14.76,80.48-23.21,50.35-16,99.82-34.34,145.64-61.13,20.75-12.13,40.52-25.67,55.26-45.21,2.18-2.89,4-6.07,6-9.25,10.9,3.57,21.82,6.94,32.59,10.74,6.3,2.22,8.07,7,4.21,12.59a58,58,0,0,1-11.75,12.71c-21.77,17.12-46,30.33-70.72,42.55-38.21,18.91-76.59,37.55-115.53,54.86a143,143,0,0,1-67.68,12.26q-28.43-1.83-56.84-3.83C337.08,348.13,335.7,347.79,333.09,347.37Z"/><path class="cls-5" d="M688,544c2-4.12,3.84-8.26,5.86-12.34,3.67-7.44,8-14.61,11-22.3,4.31-11.08,2.33-22.62,1-34.06-1.32-11.17-2.31-22.39-.41-35.12,7.82,8.3,7.55,18.76,12.14,28.07,5.94-10.6,11.32-20.23,9.59-31.72-.61-4.06-2.33-8.73-5.13-11.56-12-12.12-18.38-26.58-20.53-43.28-1.68-13.06-7.83-24.52-15.28-34.87-12.21-17-25.55-33.18-38.43-49.68a13.15,13.15,0,0,0-2.28-1.52c.57,2.36,1,3.77,1.26,5.19,2.36,10.84,4.89,21.65,6.89,32.56.37,2-.93,5-2.49,6.34-.83.71-4.54-.61-5.83-2-7.56-8.35-15-16.83-22.06-25.61-6.56-8.14-12.58-16.71-18.84-25.1,5.1-3.25,10.18-6.56,15.33-9.74,5.36-3.31,10.86-6.4,16.19-9.77,2.71-1.71,4.51-1.64,6.68,1.09a68,68,0,0,0,18.7,16.2,36.33,36.33,0,0,1,17.29,23.45,22,22,0,0,0,5.89,10.44c4.53,4.86,7.34,11.35,10.74,17.23q12.11,20.91,24.05,41.92a92.83,92.83,0,0,1,12.06,53.75,109,109,0,0,0-.5,14c.18,3.54,1.43,7,2,10.54.48,2.76,1.45,5.7.94,8.32-2.22,11.56-5.1,23-7.35,34.55-2,10.42-4.13,20.87-5.14,31.41-1.4,14.51-6.42,27.5-16.7,37.43-6.87,6.63-16,11-24,16.34l-1.43-.65Q683.64,563.78,688,544Z"/><path class="cls-7" d="M727.11,634c14.11-3.85,28.2-7.75,42.34-11.48a5,5,0,0,1,3.7,1.18c4.78,3.83,9.47,7.8,14.07,11.85a7.84,7.84,0,0,1,2.29,3.59c8.52,31.62,29.32,52.06,58.72,64.73.28.12.48.43.87.8-.2.53-.26,1.31-.68,1.69C829.34,724,807.65,737,782.12,743.05a185.42,185.42,0,0,1-33.47-46C738.22,677.16,729.34,656.69,727.11,634Z"/><path class="cls-17" d="M422.53,946c-.06.24-.14.47-.22.7-1.32.1-2.64.29-4,.29q-61,0-121.95,0c-1.3,0-2.61-.17-5.27-.36,2.82-5.73,5-11,7.91-15.85,5.73-9.5,11.74-18.86,17.92-28.08,4.77-7.09,12.05-10,20.27-9.53,14,.83,25-5.56,35.15-14.06,5.94-5,11.71-10.13,18.52-16,1.16,6.49,1.92,12,3.19,17.4.89,3.79,1.92,7.75,3.85,11.08a120.22,120.22,0,0,0,27.36,32.65c-.73,4.65-1.52,9.3-2.15,14C422.79,940.8,422.73,943.43,422.53,946Z"/><path class="cls-11" d="M685.21,675.77c25.42,34.87,42.22,73.87,55,114.81a70.76,70.76,0,0,0,2.28,7.1c4.8,11.22,2.17,21.85-2.74,32.13-3.78,7.91-10.56,9.9-17.68,4.75-13.7-9.91-23.08-22.71-27-39.71-6.38-27.46-17-53.44-30.16-78.33-3.47-6.56-7.45-12.86-11.2-19.27a19.3,19.3,0,0,1,1.75-2.32C663.93,686.37,674.05,680.26,685.21,675.77Zm48.87,126.77c-.06-7.74-7.3-15-15-15.15a12.3,12.3,0,0,0-12.19,12.48c.06,7.72,7.35,15,15.11,15C729.15,814.9,734.15,809.8,734.08,802.54Z"/><path class="cls-18" d="M241.6,48.21a192.6,192.6,0,0,1,53.72-7.63,154.2,154.2,0,0,1,49.49,8.33c40,13.82,70.25,40.33,95.86,72.94,25,31.86,43.7,67.38,59.23,104.61,2.9,7,7.83,11.78,12.93,16.75,1.22,1.18,2.29,2.52,4.39,4.87-9.34-1.81-17.19-3.13-24.91-5A8,8,0,0,1,487.6,239c-13.75-31.58-28.94-62.39-48.73-90.73-22.37-32-48.59-60.11-83.59-78.55-10.93-5.76-22.92-9.5-34.43-14.16l-1.72-.73L313,53.36l-1.83-.54-7.22-1.38-2.55-.62L298,50.28l-1.63-.17-6.48-.68-6.49-.53H261.66l-4.24.44L242.68,51Z"/><path class="cls-9" d="M727.11,634c2.23,22.73,11.11,43.2,21.54,63.1a185.42,185.42,0,0,0,33.47,46c-10.88,2-21.71,4.29-32.65,6-9.94,1.52-7.71,1.6-11.26-7a374.47,374.47,0,0,0-45.9-81.31c-4.69-6.28-8.13-13.49-12.68-21.17,5.84-.55,10.39-.86,14.91-1.41C705.41,636.82,716.26,635.37,727.11,634Z"/><path class="cls-13" d="M559.86,719.43c6.75-2,13.43-3.88,20-6.08a67.09,67.09,0,0,0,11.89-5.05c3.23-1.85,5.25-1.47,6.93,1.66,6.75,12.55,14.47,24.69,20,37.76,7.2,17,12.65,34.85,19.15,53.15-6.12,2.17-11.32,4.18-16.64,5.84-7.77,2.42-15.63,4.56-23.45,6.86-3.08.91-4.67.41-5.58-3.28-7.63-30.83-16.94-61.09-32.12-89.22A6.35,6.35,0,0,1,559.86,719.43ZM580,751.05c.09,8.58,7.78,15.64,16.88,15.5,9.31-.14,17.75-8.33,17.58-17.07-.16-8.43-8.09-15.62-17.07-15.46C588,734.19,579.91,742.07,580,751.05Z"/><path class="cls-19" d="M883.56,247.92c-6.17,8.89-11.89,17.4-17.87,25.7-10.6,14.71-21.56,29.15-32,44C822.87,333,821,349.25,829.61,366.46c7.47,15,15.77,29.76,21.55,45.42A373.3,373.3,0,0,1,866.46,466c2.75,13.38,2.45,27.4,3.39,41.14.45,6.48.44,13,1,19.46.41,4.79-3,4.38-5.82,4.79-3.73.56-2.81-2.4-2.93-4.33-1.1-17.78-1-35.71-3.49-53.29-2.51-18.05-7.42-35.77-11.34-53.62-4-18.43-16.43-32.82-24.06-49.52-3.31-7.25-7.11-14.27-10.6-21.44-6-12.39-3.89-24.26,3.77-34.87C833.19,291,850.59,268.11,867.65,245c1.94-2.64,3.65-3.48,6.59-1.75S880.06,246.16,883.56,247.92Z"/><path class="cls-13" d="M646.06,798.25c-10.09-34.42-20.63-67.41-41.4-96.52l22-17.55c5.45,7.7,11.23,15.13,16.23,23.05,14.42,22.87,24.57,47.7,33.06,73.27,1.11,3.36.72,5.44-3.14,6.86C664,790.62,655.4,794.41,646.06,798.25Z"/><path class="cls-15" d="M835.8,572.77c15.1.61,31.27,2.89,44.75,14,2.58,2.13,6.52,4,7.22,6.73,1.33,5.15,1,10.79.89,16.22a6,6,0,0,1-2.8,4.5c-9.32,4.12-15.68,14.41-27.54,13.28-1-.1-2.16.71-3.21,1.15-1.68.72-3.38,2.2-5,2.11-12.48-.63-25.28,3.35-37.39-2.95-5.12-2.67-10.86-4.15-16-6.76-6.22-3.13-11.43-7.66-13.72-14.5-2.67-8,.95-16.15,9.55-22.18C805,575.63,819.43,573.48,835.8,572.77Zm-11.2,11.31a44.1,44.1,0,0,0-24.85,5.58c-11.57,6.41-12,17-.73,23.87,3.15,1.93,7.17,2.48,10.26,4.48,7.32,4.76,15.69,3.28,23,2.43a43.44,43.44,0,0,0,21.64-8.53c5.52-4.29,6.16-14.62.43-18.72C845.46,586.82,835.69,583.29,824.6,584.08Z"/><path class="cls-20" d="M356.15,405c-1.13,6.36-1.92,12.8-3.48,19.06-2.72,10.88-5.82,21.66-9,32.42-.49,1.69-2.06,3.05-3.14,4.57l-2.51,2,.05,0a47.33,47.33,0,0,0-4.12,2.48c-6.51,4.84-13.59,8.07-21.83,8.5-16.82.89-29.6-6.61-40.2-18.94-.93-1.09-2.68-1.48-4.05-2.19-.31-.61-.63-1.22-.95-1.83l1.67-1.25-2.08-.6c-.81-3.64-2.06-7.25-2.34-10.94-1.43-18.7,1.3-36.92,6.91-54.75.2-.67,1-1.14,1.59-1.7l9.55-6,10.89,8c-.46.45-.84,1.13-1.4,1.32-10.77,3.71-13,10.43-12.47,21.57.37,7.6,1.38,15.17,2.1,22.75-2.18,2.13-6.11,4.21-6.18,6.41-.17,4.61,4.62,5.84,8.36,7.05a68.61,68.61,0,0,0,8.26,1.66c7.32,8,21.25,11.35,31.08,7.49,11.73-4.6,17.72-14.05,21.22-25.44,3.24-10.56,5.53-21.14-3.15-30.52l8.21-1.7-2.82,2c2.18,2.75,4.21,5.55,6.54,8.07C353.47,405.15,355,404.87,356.15,405Z"/><path class="cls-19" d="M839.73,923.8c-12.58-1.91-13.26-12.22-15.61-20.89-3-10.9-5.63-21.94-7.53-33.07-4.16-24.37,1.65-45.76,20-63.16,8.09-7.64,12.74-17.64,15.43-28.09,5.2-20.27,9.43-40.79,13.93-61.23,1.1-5,1.34-5.15,9.83-3.63,4.35.77,2.9,3.6,2.46,6.11-3.25,18.67-6.59,37.32-9.75,56a63.46,63.46,0,0,1-18.89,36c-8.13,7.85-14.54,16.69-18.11,27.62-4.13,12.61-3.86,25.14-1,37.9,3.27,14.76,6.26,29.59,9.34,44.39A8.2,8.2,0,0,1,839.73,923.8Z"/><path class="cls-21" d="M921.74,529.63l-20.45-1.07c-.49-.4-1-1.2-1.48-1.16-5.24.53-5.88-2.42-5.82-6.74.15-10.66-.32-21.32-.09-32,.37-17.24-1.26-34.18-6.18-50.75-.82-2.76-1.34-5.61-2.27-9.56,14.57,6.54,27.89,13,43.34,11.65a7,7,0,0,1-.27,2c-9,16-7.42,33.41-7.19,50.68C921.5,505,921.61,517.33,921.74,529.63Z"/><path class="cls-17" d="M401.19,697.84c-12.38.48-22.71,6.42-32.95,12.5-5.25,3.12-10.35,6.49-15.52,9.75-4.26-5.22-8.15-10.8-12.85-15.59-8.95-9.1-18.37-17.74-27.59-26.58l-3.34-3.15c6.5-1.35,12.12-2.26,17.59-3.72,16.27-4.34,32.26-2.47,48.08,2.08,8.81,2.53,13.88,10,19.88,16.16C397,691.87,399,695,401.19,697.84Z"/><path class="cls-22" d="M281.37,429.47c-.72-7.58-1.73-15.15-2.1-22.75-.54-11.14,1.7-17.86,12.47-21.57.56-.19.94-.87,1.4-1.32l22.75,9.64c-4.87.87-10,1.08-14.55,2.75-11.78,4.27-14.69,15.7-6.33,23.25,8.71,7.86,26.9,7.76,35.51-.2,7.6-7,6.62-16.17-2.4-21.38-2.53-1.47-5.3-2.51-8-3.75l3.09.06,2.71.54,15,1.38c8.68,9.38,6.39,20,3.15,30.52-3.5,11.39-9.49,20.84-21.22,25.44-9.83,3.86-23.76.52-31.08-7.49,1.59-.43,3.37-.53,4.71-1.35,2.12-1.29,5.24-2.86,5.52-4.68s-2.13-5.21-4-5.8C292.66,431.09,287,430.49,281.37,429.47Z"/><path class="cls-21" d="M898.24,715.35l9.78.5h2l6-.69,2.29-.58,4.71-1.44c.88,1.12,2.35,2.15,2.54,3.38a72.18,72.18,0,0,1,.39,9c.43,17.41-1,34.95,3.83,52,.34,1.19.05,2.56.05,4.39-14.14-3.07-27.19.42-40.94,5.82.79-2.81,1.22-4.35,1.66-5.88,4.3-15.06,7.79-30.23,7.36-46.07C897.74,729,898.12,722.17,898.24,715.35Z"/><path class="cls-3" d="M605.11,397.67c-17.75-2.91-35.53-3.42-53.55-2.95-32.08.83-52.39-11-67.64-43.91-.8-1.73-2.65-3-4-4.46,6.26-2.57,12.48-5.26,18.84-7.57.88-.31,2.95,1,3.61,2.05,4.06,6.59,7.8,13.38,11.79,20,6.91,11.47,14.72,21.68,28.24,26.51,16.18,5.79,30.2,2.54,38.11-10.34,1.62-2.63,2.44-5.74,3.62-8.63a21.83,21.83,0,0,1,2.68-5.2C589.19,376.86,597.52,387.07,605.11,397.67Z"/><path class="cls-23" d="M563,168.94c-.61,2.58-2,5.26-1.68,7.72C562,182,558.74,184,555,186a21.24,21.24,0,0,0-5.07,4.1c11.4-.24,10.09,10.61,14.79,16,.39.45-.6,3.06-1.53,3.54-5.87,3.08-11.83,6-17.95,8.57-1.25.52-3.87-.29-4.81-1.39-3.35-3.88-6.25-8.15-9.4-12.38l3.85-6.31c-2.85.3-5-.11-6.3.78-6.17,4.37-11.78,3-17.46-.85-1.87-1.27-4-2.21-7.35-4.05,4.88-1.94,8.39-3.54,12-4.75,3.93-1.3,4-3.25,1.74-6.25q-16-20.94-31.85-42a7.91,7.91,0,0,1-1.63-5c.89-9,2.08-18.08,3.24-27.11.07-.56.7-1,1.18-1.71,8.73,3.83,17.46,7.4,25.9,11.53a15.44,15.44,0,0,1,6.47,6.26c7.68,14.65,15,29.51,22.44,44.27a53.76,53.76,0,0,0,3.26,4.91L561.44,166ZM513.37,194c3.7,3.57,7,5.05,11.52,2.88a25.9,25.9,0,0,1,9-2.15c1.43-.11,3.36,1.15,4.34,2.36.58.72.2,2.91-.51,3.85-1.77,2.34-1.46,4.11.36,6.17,1.54,1.74,2.6,3.88,4.16,5.59.76.83,2.46,1.77,3.23,1.45,5-2.09,9.82-4.51,15.62-7.25-4.89-4.64-4-13-13.11-12.14-2,.18-4.5-3.27-1.79-6.16,1.9-2,4-4.27,6.43-5.34,5-2.18,5.23-5.61,4-10.46-1.57.88-2.85,1.52-4.06,2.27-6,3.75-9.48,2.87-12.66-3.37-7.7-15.09-15.32-30.22-23.09-45.27a9.83,9.83,0,0,0-3.82-4.29c-6.13-3-12.46-5.48-18.7-8.19-2.74-1.19-3.92-.39-4.21,2.63-.48,5.13-1.64,10.21-1.79,15.34a13.93,13.93,0,0,0,2.21,8.13c10.37,14.23,21.1,28.22,31.65,42.32,2.62,3.51,1.81,6.87-2.07,8.88C518.18,192.23,516.12,192.89,513.37,194Z"/><path class="cls-17" d="M685.21,675.77c-11.16,4.49-21.28,10.6-29.82,19.16a19.3,19.3,0,0,0-1.75,2.32L636.2,674.49l21.39-31.06c7.59,8.28,15.11,16.33,22.43,24.57C682.07,670.31,683.5,673.17,685.21,675.77Z"/><path class="cls-18" d="M147,214.14c11.87,1.38,23.91,1.93,35.57,4.33a142.17,142.17,0,0,1,48.91,19.89c19.84,12.85,34.18,30.31,43.45,52,.58,1.36,1.23,2.68,1.84,4-4.34,3.56-6.07,3.41-7.83-.88-11.3-27.63-32.08-45.48-58.82-57.2-21.44-9.39-44.09-13.47-67.22-15.52a46.77,46.77,0,0,1-4.81-.9c1.38-.28,2.8-.93,4.12-.77C146.22,219.59,147.58,217.88,147,214.14Z"/><path class="cls-20" d="M532.89,365.9c-5.21-7.81-10.51-15.58-15.62-23.47-2-3-3.51-6.32-5.54-10l5.09-2.42A39.78,39.78,0,0,0,531,351.45c10.8,8.6,25.32,1.85,28.39-10.31,2.37-2.05,5.05-3.83,7-6.19,3.64-4.33,2.27-7.43-3.37-8.44l-4.23-16.16a47.38,47.38,0,0,1,6.09-3.88c.57-.26,2.56,1,2.8,1.83,2.53,9,5,18.09,7.12,27.23a62.31,62.31,0,0,1,1,11.85c0,1.52-.68,3.06-1.06,4.59l-2.11-3.22c-.8,1.94-1.23,3.32-1.9,4.58-3.78,7.19-13.31,17.34-23.61,15.71C542.38,368.28,537.66,367,532.89,365.9Z"/><path class="cls-24" d="M320.16,394.14c2.66,1.24,5.43,2.28,8,3.75,9,5.21,10,14.36,2.4,21.38-8.61,8-26.8,8.06-35.51.2-8.36-7.55-5.45-19,6.33-23.25,4.58-1.67,9.68-1.88,14.55-2.75Z"/><path class="cls-25" d="M921.74,529.63c-.13-12.3-.24-24.6-.41-36.9-.23-17.27-1.78-34.71,7.19-50.68a7,7,0,0,0,.27-2c-15.45,1.36-28.77-5.11-43.34-11.65.93,3.95,1.45,6.8,2.27,9.56,4.92,16.57,6.55,33.51,6.18,50.75-.23,10.65.24,21.31.09,32-.06,4.32.58,7.27,5.82,6.74.45,0,1,.76,1.48,1.16H888.67c.52-1.85,1.51-3.71,1.49-5.56-.25-19.79,0-39.62-1.32-59.34-.73-10.46-4.39-20.71-6.75-31.06-.29-1.29-1.07-2.61-.93-3.84.19-1.66.64-3.73,1.77-4.69.83-.7,3.07-.26,4.44.28,7.4,2.92,14.63,6.29,22.12,9,6.41,2.3,13,3.76,20,1.94a4.83,4.83,0,0,1,4.15,1.64,5.08,5.08,0,0,1,0,4.53c-9,14.17-8.92,29.77-8.13,45.74.7,14.27.34,28.6.44,42.9Z"/><path class="cls-23" d="M430.15,22.53a164.88,164.88,0,0,1,40.62,16.61c33,18.81,58.41,44.91,75.47,79l-.15.19c-1.37-.63-3.24-.88-4-1.94-26.29-34.69-57.8-63.35-96.4-83.87-5.11-2.72-10.44-5-15.67-7.54C430,24.15,430.09,23.34,430.15,22.53Z"/><path class="cls-19" d="M926.15,355.5c3.39-1.53,7-2.72,10.09-4.7,2.16-1.39,4.6-3.59,5.23-5.88,4-14.91,7.62-29.95,11.33-45,1.48-6,2.9-11.94,4.3-17.92.59-2.5,1.58-3.35,4.19-1.91,7.14,3.95,7.49,3.93,5.6,11.8-4.67,19.36-9.6,38.65-14.56,57.94-.38,1.49-1.5,3.6-2.7,3.94C942.11,356,934.64,359.26,926.15,355.5Z"/><path class="cls-22" d="M559.42,341.14c-3.07,12.16-17.59,18.91-28.39,10.31A39.78,39.78,0,0,1,516.82,330l6.89-3.23c2.72,7.38,9.2,10.07,16.87,7,9.59-3.84,14.3-12.42,11-20.09l7.25-3.34q2.1,8.08,4.22,16.16c-3.52,2.8-7.52,5.19-10.41,8.54-2.74,3.18-1,5.81,3.28,6.08C557.11,341.2,558.27,341.14,559.42,341.14Z"/><path class="cls-26" d="M267.9,452.92c1.37.71,3.12,1.1,4.05,2.19,10.6,12.33,23.38,19.83,40.2,18.94,8.24-.43,15.32-3.66,21.83-8.5a47.33,47.33,0,0,1,4.12-2.48c-4.16,9.49-12,15.52-20.26,20.95a39.72,39.72,0,0,1-13.45,5.86c-9.71,2-17.56-2.61-22.57-10.32C276.37,471.21,272.48,461.85,267.9,452.92Z"/><path class="cls-25" d="M898.24,715.35c-.12,6.82-.5,13.64-.32,20.44.43,15.84-3.06,31-7.36,46.07-.44,1.53-.87,3.07-1.66,5.88,13.75-5.4,26.8-8.89,40.94-5.82,0-1.83.29-3.2-.05-4.39-4.78-17.1-3.4-34.64-3.83-52a72.18,72.18,0,0,0-.39-9c-.19-1.23-1.66-2.26-2.54-3.38l7-3.11c.26,23.09-1.55,46.29,4.11,69.08,1.73,7-.15,8.3-7.07,6.77-12.42-2.75-24,.35-35.36,5.43-1.63.73-3.61.7-5.43,1-.3-2.34-1.25-4.83-.77-7,1.93-8.75,5.48-17.31,6.25-26.13,1.32-15,1-30.15,1.35-45.24Z"/><path class="cls-19" d="M931.63,944.8a8.72,8.72,0,0,1-1.76-.42c-8.92-5-8.82-5-6.21-15,4.55-17.5,9.08-35,13.36-52.59.7-2.89.1-6.1.1-9.18,7,1.25,11.19,7.92,9.36,15.25-3.63,14.51-7.49,29-11.07,43.47C933.92,932.4,932.89,938.57,931.63,944.8Z"/><path class="cls-5" d="M327,363.09a81.54,81.54,0,0,0,7.91,2.09c6.55,1.07,13.15,1.88,19.72,2.88a8.35,8.35,0,0,1,4,1.81c-8.75,3.59-17.83,5.74-27,4.41a136.41,136.41,0,0,1-26.93-6.78c-5.05-1.84-9.16-6.23-13.7-9.47,6.76.6,13.53,1.15,20.28,1.85a50.21,50.21,0,0,1,5.73,1.27l2.93,1.07Z"/><path class="cls-26" d="M532.89,365.9c4.77,1.07,9.49,2.38,14.3,3.14,10.3,1.63,19.83-8.52,23.61-15.71.67-1.26,1.1-2.64,1.9-4.58l2.11,3.22c-.93,4.87-1.54,9.83-2.86,14.58-2.3,8.31-7.63,12.23-16.23,11.29C546.73,376.85,538.14,374.38,532.89,365.9Z"/><path class="cls-27" d="M551.62,313.69c3.26,7.67-1.45,16.25-11,20.09-7.67,3.07-14.15.38-16.87-7Z"/><path class="cls-18" d="M591.2,224.11,590,222c13.9-10.13,10.82-11.84,2.88-23.35a11.57,11.57,0,0,1-2.2-5.27c5.51,2.26,11.1,4.36,16.47,6.94.86.41,1.51,3.64.87,4.43C602.61,211.37,596.85,217.7,591.2,224.11Z"/><path class="cls-9" d="M147,214.14c.56,3.74-.8,5.45-4.79,5-1.32-.16-2.74.49-4.12.77l-39.18-.06L95,218.66l2-2.23,4-.38c5.82.29,11.64.65,17.47.75.5,0,1-1.69,1.53-2.59l4-.16,20,0Zm-22.93,2.14v.44h7.74v-.44Z"/><path class="cls-24" d="M669.61,531c-.86-1.08-2.43-2.14-2.46-3.24q-.33-11.71,0-23.44c0-1.1,1.6-2.17,2.45-3.25Q669.6,516,669.61,531Z"/><path class="cls-26" d="M356.15,405c-1.11-.14-2.68.14-3.26-.48-2.33-2.52-4.36-5.32-6.54-8.07l2.82-2,5.51-.8,2.5.4C356.84,397.68,356.49,401.35,356.15,405Z"/><path class="cls-26" d="M282.25,375.84l-9.55,6c1.21-3.6,2.43-7.2,4.06-12Z"/><path class="cls-18" d="M97,216.43l-2,2.23,3.92,1.15c-3.9.59-7.79,1.36-11.71,1.66-1,.07-2.17-1.3-3.26-2l.46-1.36Z"/><path class="cls-28" d="M241.6,48.21,242.68,51l-14.8,3.44c-.17-.68-.33-1.36-.49-2Z"/><path class="cls-18" d="M120,214.21c-.51.9-1,2.6-1.53,2.59-5.83-.1-11.65-.46-17.47-.75Z"/><path class="cls-11" d="M742,851.21c-1.15,3-3.15,4.08-6.45,3.68-3-.36-6.18.35-9.21,0-1.2-.13-2.23-1.82-3.34-2.8Z"/><path class="cls-18" d="M190,326.85c-6.78,2.77-13.77,2.79-20.85,1.49Z"/><path class="cls-3" d="M546.24,118.11c4.44,3,5.51,7.69,6.48,12.44-2.73-3.82-8.2-6.19-6.63-12.25Z"/><path class="cls-18" d="M144,214.07l-20,0Z"/><path class="cls-18" d="M430.15,22.53c-.06.81-.11,1.62-.17,2.42l-12.21-4.5.5-1.68Z"/><path class="cls-18" d="M153.89,328.34c-6.08,1.07-12.13,1.74-17.86-1.49Z"/><path class="cls-25" d="M937.56,528.38q-.42-8.31-.83-16.61Q937.15,520.08,937.56,528.38Z"/><path class="cls-11" d="M761.62,931c-3.63-3.58-3.13-7.71-1.62-12Z"/><path class="cls-25" d="M936.14,495v0Z"/><path class="cls-11" d="M749.53,854.05H747l-3.58-3.17,2.76-4.56,2.13,1.23Z"/><path class="cls-18" d="M323,300.5l-13,3.63Z"/><path class="cls-18" d="M454,257.52l-13.55,5.36Z"/><path class="cls-11" d="M759.57,914c-3.82-2.79-2.91-6.34-1.62-10Z"/><path class="cls-18" d="M208,324.89l-9.87,1.4Z"/><path class="cls-11" d="M757.63,900c-2.77-2.57-3.49-5.53-1.69-9Q756.78,895.55,757.63,900Z"/><path class="cls-18" d="M437,263.63l-9,3.49Z"/><path class="cls-11" d="M755.58,887c-3.21-2.1-3.14-4.88-1.65-8Z"/><path class="cls-18" d="M223,322.77l-7.9,1.48Z"/><path class="cls-11" d="M753.53,875c-2.78-1.8-3.33-4.12-1.59-7Z"/><path class="cls-18" d="M129.91,326.32,123,324.81Z"/><path class="cls-18" d="M235,320.84l-6.91,1.41Z"/><path class="cls-18" d="M246,318.79l-6.89,1.51Z"/><path class="cls-28" d="M283.4,48.9l6.49.53Z"/><path class="cls-18" d="M503.85,250.44,497,248.87Z"/><path class="cls-18" d="M266,314.69l-5.93,1.51Z"/><path class="cls-18" d="M308,304.53l-5.95,1.65Z"/><path class="cls-25" d="M932.77,531.63l4.82-1.6c.06.86.11,1.73.17,2.59Z"/><path class="cls-18" d="M275,312.65l-5.93,1.58Z"/><path class="cls-11" d="M751.49,864c-2.29-1.52-3.34-3.37-1.54-6C750.46,860.06,751,862.05,751.49,864Z"/><path class="cls-11" d="M761,946.76c.41-1.94.83-3.89,1.24-5.83C762.2,943,765.91,945.77,761,946.76Z"/><path class="cls-18" d="M513.87,252.4,508,251Z"/><path class="cls-18" d="M284,310.57l-5.95,1.61Z"/><path class="cls-18" d="M492.9,248.32,487,246.88Z"/><path class="cls-18" d="M256,316.82l-5.91,1.43Z"/><path class="cls-11" d="M721.71,851.79c-2.46-.56-5.87.77-6.52-3.33Z"/><path class="cls-11" d="M691.45,823.89c-3.9.59-3.49-2-3.25-4.44Z"/><path class="cls-11" d="M684.37,814c-3.62-.85-2.69-2.87-1.3-5Q683.73,811.51,684.37,814Z"/><path class="cls-18" d="M300,306.64l-5,1.47Z"/><path class="cls-28" d="M257.42,49.34l4.24-.44Z"/><path class="cls-25" d="M886.72,713.84c-.35,1.87-.71,3.74-1.06,5.61C886,717.58,886.37,715.71,886.72,713.84Z"/><path class="cls-25" d="M936.75,476.31c.48-1.76,1-3.51,1.43-5.26C937.7,472.8,937.23,474.55,936.75,476.31Z"/><path class="cls-18" d="M523.61,254.86,518,253Z"/><path class="cls-18" d="M403,275.62l-3.93,1.63Z"/><path class="cls-18" d="M292,308.64l-5,1.47Z"/><path class="cls-18" d="M420,269.71l-3.93,1.53Z"/><path class="cls-18" d="M372,285.86l-3.87,1.49Z"/><path class="cls-18" d="M119,324.18,115,322.76Z"/><path class="cls-18" d="M353,291.87l-3.9,1.4Z"/><path class="cls-18" d="M472,250.86l-4.58,2Z"/><path class="cls-18" d="M426,267.55l-3.95,1.62Z"/><path class="cls-18" d="M560,240.58l-3.57,2.29Z"/><path class="cls-18" d="M573,232.46l-3.62,2.39Z"/><path class="cls-18" d="M586,224.43l-3.64,2.4Z"/><path class="cls-26" d="M266.54,449.24l2.08.6L267,451.09C266.81,450.48,266.67,449.86,266.54,449.24Z"/><path class="cls-20" d="M357.18,394l-2.5-.4,2.67-1.12C357.29,393,357.24,393.51,357.18,394Z"/><path class="cls-18" d="M358,290.21l-2.85,1.17Z"/><path class="cls-18" d="M377,284.25l-2.85,1.13Z"/><path class="cls-28" d="M301.36,50.82l2.55.62Z"/><path class="cls-28" d="M224.53,55.35a3.37,3.37,0,0,1-1.3.23c-.21,0-.29-.63-.43-1a5.51,5.51,0,0,1,1.33-.13C224.27,54.48,224.36,55,224.53,55.35Z"/><path class="cls-6" d="M319.93,362.22,317,361.15Q319.6,358.59,319.93,362.22Z"/><path class="cls-18" d="M107,320.24l-1.93-1Z"/><path class="cls-18" d="M543,251.13l-2.53,1.75Z"/><path class="cls-18" d="M465,253.36l-1.85,1Z"/><path class="cls-25" d="M940.75,461.3c.34-.83.68-1.66,1-2.49C941.43,459.64,941.09,460.47,940.75,461.3Z"/><path class="cls-11" d="M682.46,806.89l-2.58-1.17Z"/><path class="cls-18" d="M112,322.19l-1.94-.87Z"/><path class="cls-11" d="M686.41,816.91l-2.13-2.58Z"/><path class="cls-11" d="M652,816.88l-2.07,1Z"/><path class="cls-11" d="M646,819.07l-2,.88Z"/><path class="cls-25" d="M944.66,451.29c.38-.82.76-1.64,1.15-2.46C945.42,449.65,945,450.47,944.66,451.29Z"/><path class="cls-18" d="M476,249.22l-1.9,1.05Z"/><path class="cls-6" d="M419,364.05l-2.11.5Z"/><path class="cls-28" d="M319.13,54.82l1.72.73Z"/><path class="cls-28" d="M311.13,52.82l1.83.54Z"/><path class="cls-28" d="M296.37,50.11l1.63.17Z"/><path class="cls-18" d="M481,247.32l-2.64,1.5Z"/><path class="cls-18" d="M383,282.44l-1.9.86Z"/><path class="cls-18" d="M389,280.47l-1.91.81Z"/><path class="cls-18" d="M395,278.37l-1.94.83Z"/><path class="cls-18" d="M364,288.4l-1.92.84Z"/><path class="cls-18" d="M407,274.39l-1.95.79Z"/><path class="cls-18" d="M582,227l-2.68,1.81Z"/><path class="cls-3" d="M449,357.89l-2.05.76Z"/><path class="cls-18" d="M413,272.4l-2,.75Z"/><path class="cls-18" d="M344,294.5l-1.88.82Z"/><path class="cls-18" d="M337,296.54l-1.86.84Z"/><path class="cls-18" d="M330,298.5l-1.88.83Z"/><path class="cls-18" d="M103.68,318.81c-.89-.53-1.77-1.07-2.65-1.61C101.91,317.74,102.79,318.28,103.68,318.81Z"/><path class="cls-18" d="M535,255.43l-1.86.95Z"/><path class="cls-18" d="M528.85,256.45l-1.83-.77Z"/><path class="cls-25" d="M918.32,714.58l-2.29.58Z"/><path class="cls-25" d="M910,715.85h0Z"/><path class="cls-26" d="M338.05,463.1l2.51-2Z"/><path class="cls-20" d="M326,394.74l-2.71-.54Z"/><path class="cls-13" d="M166,75l-1.25,1-.15-.8,1.48,0Z"/><path class="cls-29" d="M513.5,638.64c.57-22.78,4.65-44.4,17.14-63.83,12.67-19.73,30.56-32.63,52.93-39,18.86-5.41,37,4.48,45.64,23.86,8.94,20.07,10.89,41.34,11.15,62.91,0,4.11-2.05,5.56-6.33,6.56a90.79,90.79,0,0,0-21.23,7.74,495.89,495.89,0,0,0-76.25,48.72,74.78,74.78,0,0,0-5.86,5.41c-4,3.9-8,3-9.58-2.63a141.94,141.94,0,0,1-4.22-18.48C515.43,659.5,514.6,649.05,513.5,638.64Zm112.13-50.32,2.13,7.61,1.73-.4c-.55-2.49-1.1-5-1.64-7.48l-2.94-13.38-2.15.46C621,579.94,625,583.88,625.63,588.32ZM559,657.41c4.73-3,9.06-5.56,13.11-8.51.71-.52.55-2.74.25-4.06-1.53-6.8-3.08-13.59-4.92-20.31s-4.08-13.42-6.35-20.79c-4.4,3.15-7.8,5.75-11.37,8.08-2.82,1.84-2.84,4.07-1.86,6.88,1.3,3.75,2.45,7.56,3.53,11.38C553.84,638.81,556.24,647.57,559,657.41Zm21.53-65c-4.8,2.69-8.82,4.67-12.5,7.15a5.18,5.18,0,0,0-1.77,4.39c3.25,12.53,6.78,25,10.3,37.46a24.74,24.74,0,0,0,1.82,3.76c4.25-2.53,8.19-4.65,11.85-7.2a4.64,4.64,0,0,0,1.35-4c-1.76-8-3.72-15.87-5.8-23.74C584.23,604.55,582.42,598.9,580.5,592.41Zm16.34,41.89c4.37-2.37,8-4,11.27-6.25a5,5,0,0,0,1.69-4.19c-2.3-9.87-4.91-19.67-7.42-29.49-2.88-11.31-2.82-11.19-13.58-6.18-2.87,1.34-3.7,2.81-2.81,5.77,1.59,5.25,3,10.55,4.38,15.84C592.5,617.77,594.58,625.74,596.84,634.3Zm-54-17.28c-4.58,4.12-8.17,7.05-11.34,10.39a6,6,0,0,0-1.06,4.81c1.83,7.39,4.07,14.68,6,22,1.35,5,2.49,10.09,3.92,16,4.78-3.26,8.82-5.8,12.54-8.73.81-.64,1-2.8.68-4C550.24,644.34,546.68,631.27,542.86,617Zm72.38,7.46c4-1.52,7.71-2.58,11-4.31,1.24-.64,2.6-3.1,2.29-4.3-2.62-10.1-5.32-20.2-8.59-30.1-2.79-8.44-3.07-8-11.7-5.77-4.17,1.09-4.44,3.15-3.41,6.52,1.39,4.6,2.7,9.22,4,13.86C611,608.34,613.07,616.31,615.24,624.48ZM564,596.16c4.15-2.32,7.67-4.49,11.36-6.31,3-1.46,3.53-3.49,2.48-6.4-2-5.59-3.92-11.23-5.91-16.84-1.57-4.4-3.2-8.78-5-13.54-2.54,1.66-4.36,2.78-6.1,4-9.08,6.4-9.15,6.44-5.41,16.71C558.18,581.21,561.1,588.55,564,596.16Zm33.4-18.4c-2.71-8-5.11-15.6-7.85-23.08-4-10.93-4-10.77-14.87-5.62-2.84,1.35-3.18,2.65-2.11,5.36,2.56,6.48,5,13,7.19,19.61,3.66,11.13,3.55,11.17,14.21,6.5.46-.2,1.09-.16,1.41-.46A26.92,26.92,0,0,0,597.41,577.76ZM545,609.28c4.79-3.34,8.82-5.93,12.53-8.9a4.67,4.67,0,0,0,1.14-4.13c-3.18-9.15-6.64-18.21-10.53-28.69-3.47,4.53-6.49,8.13-9.07,12-1.21,1.82-2.65,4.5-2.14,6.26C539.15,593.55,542.07,601.07,545,609.28Zm46.15-64.62c2.86,8.26,5.47,16.09,8.28,23.84,3.09,8.5,3.17,8.47,11.72,5.54.31-.11.65-.15,1-.27,2.48-.93,3.25-2.27,2-5-2.62-5.51-5.13-11.1-7.23-16.83C604.52,545.69,601.78,543.4,591.12,544.66Zm-65.31,89.53-1.85.33A146,146,0,0,0,528.88,679c7.59-5.09,7.61-5.09,5.79-12.66-1.32-5.47-2.61-10.94-4.1-16.36S527.41,639.45,525.81,634.19Zm7.92-41.86-1.88,0c-2.68,10.06-8.83,19.56-4.22,31.75,4.46-3.9,8.42-7.31,12.29-10.81a2.58,2.58,0,0,0,.75-2.16C538.43,604.86,536.06,598.6,533.73,592.33Zm79.47-37c2.36,5.65,4.14,10.09,6.1,14.46a2.32,2.32,0,0,0,2,.88,2.42,2.42,0,0,0,1.48-1.61C623.28,566.6,617.33,557.25,613.2,555.3Z"/><path class="cls-1" d="M581,439c3.7.85,7.6,1.21,11.06,2.65,9.27,3.86,13.51,14.52,9.34,24.81-3.78,9.35-9.2,18-12.87,27.42s-9.8,15.78-18.77,19.38c-8.61,3.47-17.19,4.58-25.2-2.41-4.6-4-10.05-7-15.09-10.53-12.22-8.51-14.83-21.71-5.2-33.11,5.44-6.43,13-11,19.67-16.46l.21-.07,6.91-3.53,2.19-.54,2.8-1.49,1.92-.43,3.12-1.48,3.94-1,3-1.17,2.93-.43,8.09-1.51Zm2.83,18c-2.7-.87-4.52-2.09-6.16-1.88-4.9.6-10.1.92-14.49,2.89-8,3.54-15.48,8.08-23,12.53-1.15.67-1.84,3.12-1.66,4.62.09.75,2.64,1.7,4.06,1.68a38,38,0,0,0,9.83-1.06C564,472.6,575.05,468.22,583.85,457.08Z"/><path class="cls-29" d="M472.93,488.82l-3.42,1.38-.95-.78c3.39-5.29,6.55-10.73,10.19-15.84,17.1-24,40.29-39.08,68.65-46.23,15.73-4,31.69-3,47.56-.47,1,.16,1.94,1.05,2.91,1.6-14.1,2.08-28.36,3.44-42.28,6.38C521.17,442.11,495.68,463.48,472.93,488.82Z"/><path class="cls-28" d="M670,923.07c.7,3.89,1.67,7.77,2,11.7.29,3.29-1.2,5.8-4.94,6.2l-8,2-14.53.82c-1.19-3.26-2.37-6.53-3.58-9.79-1.16-3.1-2.35-6.18-3.78-9.92-6.73,1.9-11.05-2.82-15.3-7.1-1.77-1.79-3.55-4.9-3.24-7.12.46-3.29,3.9-4,7.17-3.82a40.63,40.63,0,0,0,5-.43c-3.06-7.61-5.87-14.71-8.77-21.78-3.33-8.12-6.88-16.16-10-24.37a10.52,10.52,0,0,1-.11-6.63c2.28-6.58,5-13,7.62-19.46,1.57-3.85,4.13-6,8.53-4.25,5.78,4.41,11.33,9.17,17.4,13.13,6.79,4.44,7,11.57,8.49,18.16,3,13,5.77,26,8.5,38.44,4-1.08,7.26-2.3,10.58-2.73,3.13-.4,5.36,1.57,4.85,4.78a59.81,59.81,0,0,1-3.34,12.4c-.6,1.55-2.92,2.43-4.46,3.61-.41.75-.82,1.5-1.22,2.25a2.67,2.67,0,0,0,.15.88C669.29,921,669.62,922.05,670,923.07Zm-45.47-11.86c3,6.43,6.37,8.27,12,7.39a22.91,22.91,0,0,1,6.45-.25c3.77.48,4.34,2.4,2.11,5.33-.86,1.14-1.77,2.87-1.54,4.12,2.09,11.17,4.1,12.4,14.92,9.65l.48-.13c9-2.24,9.17-2.28,6.34-11.23-.67-2.1-2.42-3.93-3.94-5.65a18,18,0,0,0-3.64-2.53,19.45,19.45,0,0,1,3.07-3.63,13.72,13.72,0,0,1,4.18-1.58c5.72-1.73,7.44-4.51,6.55-11.37-2.24.7-4.39,1.42-6.56,2-3.67,1.07-6.46.75-7.43-3.87-2.53-12-5.71-24-7.81-36.08C648,854,644.92,846,635.87,841.31a38.42,38.42,0,0,1-7.52-5.74c-2.52-2.26-4-1.73-5.15,1.24-2,5.09-4.15,10.13-6.05,15.26-.61,1.63-1.29,3.71-.8,5.2,2,6.21,4.4,12.32,6.9,18.37,4,9.67,8.21,19.26,12.35,28.88,1.46,3.4,0,5.05-3.3,5.59C629.75,910.53,627.19,910.83,624.48,911.21Z"/><path class="cls-1" d="M440.65,885.94c-9.49,0-16.49-6.61-16.47-15.54,0-9.32,7.64-16.39,17.63-16.4,9.34,0,16.83,6.93,16.78,15.55C458.55,878.39,450.27,885.94,440.65,885.94Zm1.27-27c-6.61,0-13.09,5.76-12.87,11.42a11.46,11.46,0,0,0,11.62,10.69c6.52-.05,12.49-5.72,12.4-11.77C453,863.73,447.87,859,441.92,859Z"/><path class="cls-11" d="M670.75,942h5.34c24.78,0,49.55,0,74.32,0a67.24,67.24,0,0,0,8.12-1.06c.15.38.52,1.37,1,2.63H670.71Z"/><path class="cls-11" d="M659,943l8-2C665.4,945.9,662.16,944.31,659,943Z"/><path class="cls-11" d="M747,854l-.54,3.5L745,856.9l2-2.87Z"/><path class="cls-11" d="M749,867.8c-.41.28-.79.75-1,.68s-.81-.75-.73-.89a5.23,5.23,0,0,1,1.11-1.09C748.53,866.89,748.73,867.28,749,867.8Z"/><path class="cls-11" d="M752,892.87c-.37-.55-.86-1-.77-1.21a4.28,4.28,0,0,1,1-1.14c.19.39.54.78.52,1.16S752.38,892.34,752,892.87Z"/><path class="cls-11" d="M670,923.07c-.33-1-.66-2-1-3.05C669.28,921,669.62,922.05,670,923.07Z"/><path class="cls-11" d="M750.66,877.78c-.12.28-.18.71-.38.79s-.54-.2-.81-.31c.12-.28.18-.71.37-.79S750.38,877.67,750.66,877.78Z"/><path class="cls-11" d="M668.8,919.14c.4-.75.81-1.5,1.22-2.25C669.61,917.64,669.2,918.39,668.8,919.14Z"/><path class="cls-29" d="M734.08,802.54c.07,7.26-4.93,12.36-12.06,12.32-7.76,0-15-7.27-15.11-15a12.3,12.3,0,0,1,12.19-12.48C726.78,787.49,734,794.8,734.08,802.54Zm-12.53,6.61a7.49,7.49,0,0,0,7.52-7c.06-4.47-4.77-9-9.53-9a7.63,7.63,0,0,0-7.52,7.7C712.19,805.18,716.76,809.2,721.55,809.15Z"/><path class="cls-29" d="M580,751.05c-.09-9,8-16.86,17.39-17,9-.16,16.91,7,17.07,15.46.17,8.74-8.27,16.93-17.58,17.07C587.78,766.69,580.09,759.63,580,751.05Zm29.09-1.36a10.88,10.88,0,0,0-11.47-10.6c-6.9.18-12.69,5.53-12.62,11.67.06,5.94,5.13,10.49,11.65,10.45C603.83,761.18,609.09,756.3,609.09,749.69Z"/><path class="cls-27" d="M281.37,429.47c5.58,1,11.29,1.62,16.66,3.29,1.88.59,4.28,4,4,5.8s-3.4,3.39-5.52,4.68c-1.34.82-3.12.92-4.71,1.35a68.61,68.61,0,0,1-8.26-1.66c-3.74-1.21-8.53-2.44-8.36-7.05C275.26,433.68,279.19,431.6,281.37,429.47Z"/><path class="cls-24" d="M513.37,194c2.75-1.12,4.81-1.78,6.71-2.75,3.88-2,4.69-5.37,2.07-8.88-10.55-14.1-21.28-28.09-31.65-42.32a13.93,13.93,0,0,1-2.21-8.13c.15-5.13,1.31-10.21,1.79-15.34.29-3,1.47-3.82,4.21-2.63,6.24,2.71,12.57,5.24,18.7,8.19a9.83,9.83,0,0,1,3.82,4.29c7.77,15.05,15.39,30.18,23.09,45.27,3.18,6.24,6.62,7.12,12.66,3.37,1.21-.75,2.49-1.39,4.06-2.27,1.27,4.85,1,8.28-4,10.46-2.46,1.07-4.53,3.3-6.43,5.34-2.71,2.89-.23,6.34,1.79,6.16,9.1-.83,8.22,7.5,13.11,12.14-5.8,2.74-10.64,5.16-15.62,7.25-.77.32-2.47-.62-3.23-1.45-1.56-1.71-2.62-3.85-4.16-5.59-1.82-2.06-2.13-3.83-.36-6.17.71-.94,1.09-3.13.51-3.85-1-1.21-2.91-2.47-4.34-2.36a25.9,25.9,0,0,0-9,2.15C520.32,199.06,517.07,197.58,513.37,194Z"/><path class="cls-27" d="M559.42,341.14c-1.15,0-2.31.06-3.46,0-4.3-.27-6-2.9-3.28-6.08,2.89-3.35,6.89-5.74,10.41-8.54,5.64,1,7,4.11,3.37,8.44C564.47,337.31,561.79,339.09,559.42,341.14Z"/><path class="cls-18" d="M124.09,216.28h7.74v.44H124.1Z"/><path class="cls-27" d="M559,657.41c-2.73-9.84-5.13-18.6-7.61-27.33-1.08-3.82-2.23-7.63-3.53-11.38-1-2.81-1-5,1.86-6.88,3.57-2.33,7-4.93,11.37-8.08,2.27,7.37,4.49,14,6.35,20.79s3.39,13.51,4.92,20.31c.3,1.32.46,3.54-.25,4.06C568,651.85,563.7,654.41,559,657.41Z"/><path class="cls-27" d="M580.5,592.41c1.92,6.49,3.73,12.14,5.25,17.86,2.08,7.87,4,15.79,5.8,23.74a4.64,4.64,0,0,1-1.35,4c-3.66,2.55-7.6,4.67-11.85,7.2a24.74,24.74,0,0,1-1.82-3.76c-3.52-12.46-7-24.93-10.3-37.46a5.18,5.18,0,0,1,1.77-4.39C571.68,597.08,575.7,595.1,580.5,592.41Z"/><path class="cls-27" d="M596.84,634.3c-2.26-8.56-4.34-16.53-6.47-24.5C589,604.51,587.58,599.21,586,594c-.89-3-.06-4.43,2.81-5.77,10.76-5,10.7-5.13,13.58,6.18,2.51,9.82,5.12,19.62,7.42,29.49a5,5,0,0,1-1.69,4.19C604.83,630.25,601.21,631.93,596.84,634.3Z"/><path class="cls-27" d="M542.86,617c3.82,14.25,7.38,27.32,10.78,40.43.32,1.25.13,3.41-.68,4-3.72,2.93-7.76,5.47-12.54,8.73-1.43-5.89-2.57-11-3.92-16-2-7.35-4.21-14.64-6-22a6,6,0,0,1,1.06-4.81C534.69,624.07,538.28,621.14,542.86,617Z"/><path class="cls-27" d="M615.24,624.48c-2.17-8.17-4.25-16.14-6.41-24.1-1.26-4.64-2.57-9.26-4-13.86-1-3.37-.76-5.43,3.41-6.52,8.63-2.27,8.91-2.67,11.7,5.77,3.27,9.9,6,20,8.59,30.1.31,1.2-1.05,3.66-2.29,4.3C623,621.9,619.27,623,615.24,624.48Z"/><path class="cls-27" d="M564,596.16c-2.91-7.61-5.83-14.95-8.53-22.37-3.74-10.27-3.67-10.31,5.41-16.71,1.74-1.23,3.56-2.35,6.1-4,1.75,4.76,3.38,9.14,5,13.54,2,5.61,3.9,11.25,5.91,16.84,1,2.91.5,4.94-2.48,6.4C571.68,591.67,568.16,593.84,564,596.16Z"/><path class="cls-27" d="M597.41,577.76a26.92,26.92,0,0,1-2,2.31c-.32.3-.95.26-1.41.46-10.66,4.67-10.55,4.63-14.21-6.5-2.17-6.61-4.63-13.13-7.19-19.61-1.07-2.71-.73-4,2.11-5.36,10.84-5.15,10.88-5.31,14.87,5.62C592.3,562.16,594.7,569.77,597.41,577.76Z"/><path class="cls-27" d="M545,609.28c-2.9-8.21-5.82-15.73-8.07-23.44-.51-1.76.93-4.44,2.14-6.26,2.58-3.89,5.6-7.49,9.07-12,3.89,10.48,7.35,19.54,10.53,28.69a4.67,4.67,0,0,1-1.14,4.13C553.79,603.35,549.76,605.94,545,609.28Z"/><path class="cls-27" d="M591.12,544.66c10.66-1.26,13.4,1,15.7,7.31,2.1,5.73,4.61,11.32,7.23,16.83,1.28,2.7.51,4-2,5-.31.12-.65.16-1,.27-8.55,2.93-8.63,3-11.72-5.54C596.59,560.75,594,552.92,591.12,544.66Z"/><path class="cls-15" d="M525.81,634.19c1.6,5.26,3.3,10.49,4.76,15.78s2.78,10.89,4.1,16.36c1.82,7.57,1.8,7.57-5.79,12.66A146,146,0,0,1,524,634.52Z"/><path class="cls-15" d="M533.73,592.33c2.33,6.27,4.7,12.53,6.94,18.83a2.58,2.58,0,0,1-.75,2.16c-3.87,3.5-7.83,6.91-12.29,10.81-4.61-12.19,1.54-21.69,4.22-31.75Z"/><path class="cls-10" d="M613.2,555.3c4.13,2,10.08,11.3,9.62,13.73a2.42,2.42,0,0,1-1.48,1.61,2.32,2.32,0,0,1-2-.88C617.34,565.39,615.56,561,613.2,555.3Z"/><path class="cls-10" d="M625.63,588.32c-.68-4.44-4.62-8.38-2.87-13.19l2.15-.46,2.94,13.38Z"/><path class="cls-19" d="M625.63,588.32l2.22-.27c.54,2.49,1.09,5,1.64,7.48l-1.73.4Z"/><path class="cls-6" d="M583.85,457.08c-8.8,11.14-19.83,15.52-31.41,18.78a38,38,0,0,1-9.83,1.06c-1.42,0-4-.93-4.06-1.68-.18-1.5.51-3.95,1.66-4.62,7.51-4.45,15-9,23-12.53,4.39-2,9.59-2.29,14.49-2.89C579.33,455,581.15,456.21,583.85,457.08ZM549.94,473c2.52-.47,4.48-.45,6.07-1.2,5.2-2.46,10.31-5.12,15.34-7.91.75-.42,1.15-1.94,1.18-3,0-.4-1.5-1.26-2.25-1.19a40.49,40.49,0,0,0-21.43,8.49c-.77.6-1.57,2.18-1.29,2.86C548,472,549.37,472.55,549.94,473Z"/><path class="cls-2" d="M571,440.66v-4.49l8.09,3Z"/><path class="cls-2" d="M544.17,450.72l-1.12-2.54c3.34,3.71,4.76-7,8-1Z"/><path class="cls-2" d="M558,444.73c-.06-1.09-.13-2.18-.26-4.45l3.38,3Z"/><path class="cls-2" d="M553.27,446.65l-1-4.68,3.79,3.19Z"/><path class="cls-17" d="M441.92,859c5.95,0,11.07,4.75,11.15,10.34.09,6-5.88,11.72-12.4,11.77a11.46,11.46,0,0,1-11.62-10.69C428.83,864.74,435.31,859,441.92,859Z"/><path class="cls-17" d="M721.55,809.15c-4.79.05-9.36-4-9.53-8.38a7.63,7.63,0,0,1,7.52-7.7c4.76,0,9.59,4.58,9.53,9A7.49,7.49,0,0,1,721.55,809.15Z"/><path class="cls-19" d="M549.94,473c-.57-.42-2-1-2.38-1.91-.28-.68.52-2.26,1.29-2.86a40.49,40.49,0,0,1,21.43-8.49c.75-.07,2.26.79,2.25,1.19,0,1-.43,2.54-1.18,3-5,2.79-10.14,5.45-15.34,7.91C554.42,472.52,552.46,472.5,549.94,473Z"/></g></g></svg>